<?xml version="1.0" standalone="no"?>
<!DOCTYPE svg PUBLIC "-//W3C//DTD SVG 20010904//EN"
 "http://www.w3.org/TR/2001/REC-SVG-20010904/DTD/svg10.dtd">
<svg version="1.0" xmlns="http://www.w3.org/2000/svg"
 width="1024.000000pt" height="768.000000pt" viewBox="0 0 1024.000000 768.000000"
 preserveAspectRatio="xMidYMid meet">

<g transform="translate(0.000000,768.000000) scale(0.100000,-0.100000)"
fill="#000000" stroke="none">
<path d="M4845 5920 c-21 -4 -57 -5 -78 -2 -25 3 -42 1 -47 -8 -4 -7 -29 -14
-56 -17 -27 -2 -56 -7 -64 -11 -8 -3 -26 -7 -39 -8 -14 -2 -29 -10 -34 -19 -7
-12 -12 -13 -22 -5 -8 7 -20 8 -27 4 -7 -5 -26 -9 -43 -9 -87 -4 -95 -5 -95
-21 0 -11 -6 -14 -20 -9 -11 4 -20 2 -20 -4 0 -6 -13 -11 -30 -11 -19 0 -30
-5 -30 -14 0 -13 -43 -31 -66 -27 -6 0 -17 -6 -24 -14 -7 -8 -18 -15 -25 -15
-7 0 -18 -7 -25 -15 -12 -14 -15 -14 -31 1 -11 10 -19 12 -19 6 0 -6 5 -12 12
-14 6 -2 9 -9 7 -16 -3 -9 -10 -8 -29 1 -23 11 -28 10 -58 -20 -18 -18 -39
-33 -47 -33 -7 0 -17 -9 -20 -20 -3 -11 -11 -20 -16 -20 -6 0 -7 -5 -3 -12 5
-8 0 -9 -14 -6 -12 4 -25 2 -28 -3 -3 -5 2 -9 10 -9 9 0 16 -4 16 -10 0 -5 -5
-10 -11 -10 -7 0 -18 -8 -25 -17 -13 -17 -13 -17 -14 0 0 23 -20 22 -20 -2 0
-12 -9 -21 -25 -25 -14 -4 -25 -11 -25 -16 0 -6 -7 -10 -16 -10 -8 0 -12 -5
-9 -10 9 -15 -22 -60 -40 -60 -8 0 -15 5 -15 11 0 8 -5 7 -16 -2 -9 -7 -14
-22 -11 -35 3 -16 0 -21 -10 -17 -7 3 -13 9 -13 14 0 5 -5 9 -10 9 -6 0 -8
-11 -4 -25 4 -16 1 -30 -9 -40 -18 -17 -37 -20 -37 -5 0 6 7 10 15 10 8 0 15
7 15 15 0 20 -6 19 -31 -6 -16 -16 -18 -23 -8 -35 11 -14 7 -17 -21 -15 -8 0
-24 -6 -35 -15 -19 -14 -19 -16 -3 -28 15 -11 12 -14 -26 -31 -32 -14 -42 -24
-38 -37 3 -12 -1 -18 -12 -18 -9 0 -16 -8 -16 -18 0 -9 -12 -31 -27 -47 -16
-16 -27 -33 -25 -38 1 -4 -5 -10 -13 -13 -8 -4 -15 -12 -15 -19 0 -7 -7 -18
-15 -25 -9 -7 -14 -19 -11 -27 3 -7 -1 -13 -10 -13 -11 0 -14 -6 -10 -16 3 -8
2 -13 -3 -10 -13 8 -34 -21 -28 -38 3 -8 -1 -13 -11 -12 -13 1 -16 -6 -14 -28
3 -23 1 -28 -12 -23 -10 4 -16 1 -16 -9 0 -8 5 -12 10 -9 13 8 13 -5 0 -25 -6
-10 -10 -11 -10 -2 0 6 -4 12 -9 12 -4 0 -11 -24 -14 -52 -4 -29 -11 -54 -17
-56 -5 -2 -10 -12 -10 -23 0 -10 -11 -47 -23 -81 -13 -35 -30 -91 -37 -125 -7
-35 -17 -63 -21 -63 -5 0 -9 -17 -9 -38 0 -21 -4 -42 -9 -47 -39 -40 -29 -515
13 -640 8 -22 19 -66 25 -97 7 -32 17 -60 22 -63 5 -4 9 -16 9 -29 0 -12 3
-26 7 -30 5 -4 13 -26 19 -49 6 -24 16 -41 23 -39 7 1 10 -1 7 -6 -7 -12 15
-92 25 -92 5 0 9 -5 9 -11 0 -35 138 -268 189 -320 9 -9 27 -29 40 -45 84
-100 152 -174 191 -209 53 -47 154 -125 163 -125 9 0 101 -64 105 -72 2 -5 10
-8 17 -8 8 0 30 -9 49 -21 27 -15 36 -17 36 -7 0 7 6 2 13 -12 7 -14 21 -25
33 -25 11 0 28 -8 38 -18 10 -9 26 -17 36 -17 10 0 20 -6 23 -12 8 -20 114
-69 216 -100 103 -31 245 -53 235 -36 -3 4 5 8 17 8 18 0 19 -2 9 -15 -11 -13
-8 -15 13 -15 14 0 38 5 53 10 30 12 46 4 24 -11 -11 -8 -8 -8 10 -3 25 7 53
8 100 5 20 -1 22 -3 10 -11 -12 -8 -10 -10 8 -10 13 0 20 4 17 10 -4 6 20 11
62 12 114 3 136 5 208 16 39 6 99 14 135 18 36 3 71 11 77 16 7 6 25 7 39 4
17 -5 30 -3 34 4 4 7 25 12 46 13 22 0 42 5 45 10 4 5 20 11 35 13 16 2 47 11
69 20 22 10 44 17 48 16 14 -4 47 18 44 30 -1 6 4 13 11 15 6 3 12 0 12 -6 0
-7 10 -5 24 5 14 8 23 21 20 28 -3 8 7 10 34 8 29 -3 41 0 45 13 5 11 3 14 -6
9 -6 -3 2 5 18 20 17 14 36 25 42 26 20 0 53 33 53 51 0 10 11 20 25 23 14 4
44 24 68 46 23 22 47 40 54 40 6 0 15 9 18 20 3 11 11 20 16 20 13 0 189 177
189 190 0 5 5 10 10 10 6 0 15 11 20 25 5 14 14 25 20 25 5 0 10 7 10 15 0 8
11 22 25 31 14 9 25 25 25 35 0 11 11 24 25 31 26 12 32 24 14 30 -15 5 7 59
23 56 9 -2 13 8 13 30 0 27 4 32 22 32 19 0 23 6 23 29 0 15 9 40 20 54 11 14
20 32 20 41 0 9 5 15 12 14 13 -3 29 58 21 79 -3 7 0 13 6 13 6 0 11 6 11 14
0 8 7 17 16 20 8 3 12 11 9 16 -4 6 0 22 9 35 9 13 16 31 16 40 0 8 10 25 21
36 17 17 20 29 15 58 -4 25 -2 31 4 21 5 -8 10 -13 11 -10 0 3 2 14 4 25 2 11
10 56 18 100 9 44 18 107 22 140 3 33 10 75 16 93 8 25 8 45 0 75 -7 23 -10
59 -7 80 3 21 1 46 -3 55 -14 26 -34 129 -28 139 3 5 -2 15 -12 22 -11 9 -16
22 -13 41 2 15 -1 31 -7 34 -6 4 -11 23 -11 43 0 25 -5 36 -17 39 -12 3 -19
16 -20 36 -1 17 -11 49 -21 72 -11 22 -22 49 -25 59 -4 9 -13 17 -21 17 -9 0
-12 7 -9 20 3 12 0 20 -6 20 -7 0 -10 4 -6 10 7 12 -25 50 -45 51 -10 0 -11 2
-2 6 17 7 15 33 -3 33 -9 0 -20 11 -24 24 -10 25 -43 35 -99 31 -20 -1 -31 2
-29 9 3 6 10 10 16 8 7 -1 18 4 25 11 11 11 5 13 -37 13 -30 0 -52 5 -55 12
-2 7 -13 13 -25 13 -17 1 -18 2 -4 6 19 5 24 23 6 23 -8 0 -8 5 1 15 7 8 10
21 7 28 -7 18 -75 29 -96 17 -14 -8 -14 -9 1 -10 9 0 19 -6 21 -12 4 -10 8
-10 15 1 6 9 17 11 28 6 13 -5 15 -9 7 -12 -7 -3 -13 -11 -13 -19 0 -15 -12
-19 -24 -6 -4 4 -11 7 -16 7 -5 0 -27 14 -49 30 -31 23 -41 37 -41 59 0 23 -4
27 -19 23 -12 -3 -18 0 -16 7 3 6 -2 20 -10 30 -15 19 -15 19 -29 1 -9 -13
-18 -16 -32 -10 -18 8 -17 9 4 13 22 3 22 5 -10 22 -18 9 -40 15 -48 13 -9 -3
-11 -2 -4 4 21 17 24 42 4 48 -10 3 -20 16 -22 28 -2 16 -9 21 -25 20 -11 -1
-24 5 -27 13 -7 18 0 34 15 34 6 0 8 -4 4 -9 -3 -6 4 -9 15 -8 23 1 28 17 5
17 -8 0 -15 5 -15 10 0 6 -12 3 -26 -6 -25 -17 -26 -16 -52 9 -22 22 -23 27
-9 27 9 0 17 -4 17 -10 0 -5 5 -10 12 -10 6 0 4 8 -6 19 -21 24 -3 39 22 19
15 -12 16 -11 3 5 -8 11 -21 15 -32 12 -13 -4 -19 -1 -19 9 0 9 -6 15 -12 13
-8 -1 -13 9 -13 28 0 25 -4 31 -22 30 -12 0 -25 -3 -28 -7 -9 -9 -45 9 -45 22
0 5 13 7 30 4 66 -14 111 29 60 56 -22 12 -27 1 -8 -18 15 -15 10 -20 -22 -23
-48 -4 -68 1 -73 20 -3 15 1 21 16 23 11 2 22 8 24 15 3 8 -6 10 -26 7 -29 -5
-50 9 -31 21 6 4 8 11 5 16 -4 5 -13 3 -21 -6 -20 -20 -44 -19 -44 1 0 10 6
14 15 10 8 -3 15 -1 15 4 0 9 -71 34 -100 35 -8 0 -22 4 -30 10 -8 5 -19 10
-24 10 -5 0 -12 9 -17 20 -6 17 -8 17 -8 3 -1 -26 -20 -22 -33 7 -6 14 -14 25
-17 26 -3 0 -19 2 -36 5 -16 2 -38 4 -47 5 -10 0 -20 4 -23 10 -4 5 -18 9 -33
9 -26 1 -26 1 -8 15 11 8 15 15 9 15 -7 0 -19 -8 -28 -17 -14 -13 -21 -14 -36
-5 -10 6 -25 9 -34 6 -11 -4 -15 0 -15 17 0 18 -3 20 -12 11 -17 -17 -25 -15
-31 9 -6 23 -27 17 -27 -7 0 -21 -14 -17 -25 9 -8 17 -19 22 -50 24 -35 2
-105 18 -155 35 -8 3 -33 2 -55 -2z m845 -299 c0 -11 -31 -24 -39 -16 -3 3 1
10 9 15 19 12 30 12 30 1z m17 -36 c9 -25 -2 -27 -22 -5 -17 18 -17 20 -1 20
9 0 19 -7 23 -15z m113 -79 c0 -3 -4 -8 -10 -11 -5 -3 -10 -1 -10 4 0 6 5 11
10 11 6 0 10 -2 10 -4z m25 -83 c-9 -8 -18 -13 -21 -10 -8 8 19 36 29 30 4 -2
0 -11 -8 -20z m0 -43 c3 -5 1 -10 -4 -10 -6 0 -11 5 -11 10 0 6 2 10 4 10 3 0
8 -4 11 -10z m125 -80 c0 -5 -4 -10 -10 -10 -5 0 -10 5 -10 10 0 6 5 10 10 10
6 0 10 -4 10 -10z m-30 -14 c0 -3 -4 -8 -10 -11 -5 -3 -10 -1 -10 4 0 6 5 11
10 11 6 0 10 -2 10 -4z m-2396 -22 c9 -22 8 -23 -14 -17 -21 5 -25 15 -13 26
11 11 20 8 27 -9z m2426 5 c0 -6 7 -9 14 -6 10 4 13 1 9 -9 -7 -19 -16 -18
-31 6 -7 12 -8 20 -2 20 5 0 10 -5 10 -11z m410 -329 c0 -5 -4 -10 -10 -10 -5
0 -10 5 -10 10 0 6 5 10 10 10 6 0 10 -4 10 -10z m13 -50 c9 -11 17 -23 17
-26 0 -8 -49 30 -50 39 0 13 15 7 33 -13z m84 4 c-3 -3 -12 -4 -19 -1 -8 3 -5
6 6 6 11 1 17 -2 13 -5z m3 -204 c0 -5 -4 -10 -10 -10 -5 0 -10 5 -10 10 0 6
5 10 10 10 6 0 10 -4 10 -10z"/>
<path d="M5210 5855 c0 -8 5 -15 10 -15 6 0 10 7 10 15 0 8 -4 15 -10 15 -5 0
-10 -7 -10 -15z"/>
<path d="M5737 5660 c-3 -11 -1 -20 4 -20 5 0 9 9 9 20 0 11 -2 20 -4 20 -2 0
-6 -9 -9 -20z"/>
<path d="M3690 5440 c0 -5 7 -10 15 -10 8 0 15 5 15 10 0 6 -7 10 -15 10 -8 0
-15 -4 -15 -10z"/>
<path d="M5926 5413 c-6 -14 -5 -15 5 -6 7 7 10 15 7 18 -3 3 -9 -2 -12 -12z"/>
<path d="M5982 5400 c0 -14 2 -19 5 -12 2 6 2 18 0 25 -3 6 -5 1 -5 -13z"/>
<path d="M10160 5375 c0 -8 7 -15 15 -15 11 0 15 -11 15 -40 0 -36 -2 -40 -25
-40 -20 0 -25 -5 -25 -26 0 -14 -4 -23 -10 -19 -5 3 -10 15 -10 26 0 10 -4 19
-9 19 -11 0 -21 -49 -22 -114 -1 -28 -3 -43 -6 -33 -3 12 -15 17 -44 17 l-39
0 0 -55 c0 -30 5 -55 10 -55 6 0 10 -18 10 -40 0 -22 -4 -40 -10 -40 -5 0 -10
7 -10 15 0 10 -11 15 -35 15 -21 0 -35 5 -35 13 0 9 -3 8 -9 -2 -7 -11 -10
-11 -15 0 -3 8 -4 -3 -2 -24 4 -29 0 -42 -19 -61 -17 -17 -21 -30 -18 -50 4
-20 8 -24 14 -14 6 9 9 2 9 -19 0 -27 4 -33 23 -33 29 -1 64 -26 45 -33 -10
-4 -10 -6 0 -6 7 -1 19 7 28 18 13 14 25 18 55 14 30 -4 39 -2 39 9 0 9 24 21
66 33 37 10 73 25 80 33 11 11 14 65 14 268 l0 254 -40 0 c-29 0 -40 -4 -40
-15z m-210 -499 c0 -2 -7 -9 -15 -16 -12 -10 -15 -10 -15 4 0 9 7 16 15 16 8
0 15 -2 15 -4z m50 -61 c0 -8 -7 -15 -16 -15 -14 0 -14 3 -4 15 7 8 14 15 16
15 2 0 4 -7 4 -15z"/>
<path d="M6010 5301 c0 -5 7 -11 15 -15 8 -3 15 -1 15 3 0 5 -7 11 -15 15 -8
3 -15 1 -15 -3z"/>
<path d="M6030 5239 c0 -5 5 -7 10 -4 6 3 10 8 10 11 0 2 -4 4 -10 4 -5 0 -10
-5 -10 -11z"/>
<path d="M6058 5213 c7 -3 16 -2 19 1 4 3 -2 6 -13 5 -11 0 -14 -3 -6 -6z"/>
<path d="M6198 5133 c6 -2 18 -2 25 0 6 3 1 5 -13 5 -14 0 -19 -2 -12 -5z"/>
<path d="M6180 5100 c0 -6 7 -10 15 -10 8 0 15 2 15 4 0 2 -7 6 -15 10 -8 3
-15 1 -15 -4z"/>
<path d="M6348 5033 c7 -3 16 -2 19 1 4 3 -2 6 -13 5 -11 0 -14 -3 -6 -6z"/>
<path d="M9806 4984 c-4 -9 -4 -19 -1 -22 2 -3 7 3 11 12 4 9 4 19 1 22 -2 3
-7 -3 -11 -12z"/>
<path d="M9816 4864 c-11 -28 -6 -54 9 -54 10 0 15 11 15 35 0 36 -13 47 -24
19z"/>
<path d="M0 4001 l0 -269 67 -16 c36 -8 69 -20 73 -27 4 -6 12 -9 18 -5 5 3
32 -1 58 -9 27 -8 66 -15 86 -15 21 0 55 -7 75 -15 51 -19 140 -37 183 -37 26
1 31 -2 20 -9 -11 -8 0 -9 38 -5 34 3 61 1 73 -7 16 -10 21 -9 28 1 8 14 32
13 42 -2 8 -11 108 -16 114 -6 7 11 -15 17 -47 15 -16 -1 -28 1 -28 5 0 4 -13
13 -30 20 -37 15 -38 23 -5 38 21 10 27 9 31 -3 7 -17 69 -21 79 -5 3 6 24 10
46 10 36 0 44 7 40 33 -1 5 -3 27 -4 50 -2 23 -7 42 -13 43 -21 2 -84 35 -84
44 0 11 -22 21 -90 41 -26 7 -58 27 -76 46 -18 18 -37 33 -43 33 -6 0 -11 4
-11 10 0 5 -19 14 -42 20 -74 19 -78 21 -78 37 0 23 -48 63 -76 63 -13 0 -24
5 -24 11 0 5 -4 7 -10 4 -6 -3 -10 -2 -10 3 0 12 -59 34 -71 26 -5 -3 -9 0 -9
5 0 6 -5 11 -11 11 -6 0 -24 11 -39 24 -16 13 -46 27 -67 31 -21 3 -54 19 -73
33 -31 24 -49 28 -43 11 4 -12 -36 3 -48 17 -6 8 -18 14 -25 14 -12 0 -14 -47
-14 -269z"/>
<path d="M980 3720 c0 -31 4 -40 18 -40 13 0 17 9 17 40 1 32 -3 40 -17 40
-14 0 -18 -8 -18 -40z"/>
<path d="M330 3111 c0 -8 -35 -13 -187 -28 -35 -3 -63 -10 -63 -14 0 -5 -6 -9
-13 -9 -7 0 -25 -6 -40 -12 l-27 -13 0 -234 0 -233 23 5 c12 3 54 11 92 18 39
6 82 18 97 25 15 8 29 14 30 14 7 -3 46 15 71 32 15 11 27 16 27 11 0 -4 11 6
25 22 19 23 26 27 34 16 6 -9 11 -10 15 -2 4 6 17 11 29 11 21 1 21 1 3 15
-13 10 -32 13 -57 9 -48 -8 -84 1 -110 27 -21 21 -21 21 -1 33 10 6 32 20 46
30 16 11 42 19 63 18 43 -2 74 13 67 33 -7 18 25 73 45 78 9 2 -32 7 -90 11
-58 4 -112 11 -119 16 -20 13 27 77 61 84 22 4 26 9 22 26 -5 19 -43 30 -43
11z"/>
<path d="M400 3110 c0 -5 6 -10 14 -10 8 0 18 5 21 10 3 6 -3 10 -14 10 -12 0
-21 -4 -21 -10z"/>
<path d="M6490 3109 c0 -5 5 -7 10 -4 6 3 10 8 10 11 0 2 -4 4 -10 4 -5 0 -10
-5 -10 -11z"/>
<path d="M10197 3104 c-4 -4 -4 -10 -2 -14 6 -10 45 0 45 11 0 10 -33 12 -43
3z"/>
<path d="M10166 3055 c-8 -8 -21 -15 -29 -15 -12 0 -27 -20 -27 -36 0 -11 29
-2 33 10 5 12 13 13 39 5 51 -14 58 -12 58 21 0 27 -3 30 -29 30 -16 0 -36 -7
-45 -15z"/>
<path d="M10016 3001 c-5 -7 2 -11 18 -11 35 0 33 -21 -5 -65 -34 -38 -32 -58
3 -36 14 9 23 10 31 2 7 -7 16 -2 29 20 10 16 23 27 29 24 5 -4 21 1 35 10 17
11 35 14 55 10 26 -6 29 -4 29 18 0 23 -3 25 -46 22 -26 -2 -51 -9 -56 -17 -7
-10 -11 -9 -22 5 -17 22 -90 35 -100 18z"/>
<path d="M9923 2982 c-13 -2 -23 -7 -23 -12 0 -5 -13 -7 -30 -3 -23 4 -30 2
-30 -10 0 -21 33 -30 80 -22 30 5 40 11 40 25 0 23 -8 27 -37 22z"/>
<path d="M9970 2970 c0 -5 7 -10 16 -10 8 0 12 5 9 10 -3 6 -10 10 -16 10 -5
0 -9 -4 -9 -10z"/>
<path d="M9785 2929 c-10 -14 -1 -21 19 -13 9 3 13 10 10 15 -7 12 -21 11 -29
-2z"/>
<path d="M9700 2905 c0 -9 6 -12 15 -9 8 4 12 10 9 15 -8 14 -24 10 -24 -6z"/>
<path d="M9965 2910 c3 -5 13 -10 21 -10 8 0 14 5 14 10 0 6 -9 10 -21 10 -11
0 -17 -4 -14 -10z"/>
<path d="M9890 2880 c-8 -5 -11 -12 -7 -16 4 -4 15 0 24 9 18 18 8 23 -17 7z"/>
<path d="M10202 2860 c0 -14 2 -19 5 -12 2 6 2 18 0 25 -3 6 -5 1 -5 -13z"/>
<path d="M10226 2851 c-4 -7 -5 -15 -2 -18 9 -9 19 4 14 18 -4 11 -6 11 -12 0z"/>
<path d="M10128 2823 c6 -2 18 -2 25 0 6 3 1 5 -13 5 -14 0 -19 -2 -12 -5z"/>
<path d="M10015 2810 c-3 -5 3 -10 15 -10 12 0 18 5 15 10 -3 6 -10 10 -15 10
-5 0 -12 -4 -15 -10z"/>
<path d="M9117 2629 c7 -7 15 -10 18 -7 3 3 -2 9 -12 12 -14 6 -15 5 -6 -5z"/>
<path d="M10176 2631 c-18 -7 -18 -8 -2 -14 31 -12 66 -8 66 8 0 16 -31 19
-64 6z"/>
<path d="M10085 2611 c-3 -5 5 -11 17 -14 l23 -4 -24 -10 -25 -10 30 -8 c29
-7 29 -7 6 -16 -17 -6 -28 -5 -38 6 -18 17 -113 12 -125 -7 -8 -13 -112 -29
-202 -32 -35 -1 -61 -7 -66 -14 -4 -7 -19 -12 -32 -11 -39 3 -69 0 -67 -8 1
-5 -3 -18 -10 -30 -7 -13 -9 -23 -4 -23 4 0 16 -6 27 -13 16 -13 15 -14 -15
-12 -19 1 -50 -2 -69 -8 -32 -8 -56 -12 -107 -16 -8 0 -13 -5 -9 -10 3 -5 -8
-9 -24 -9 -16 1 -37 -6 -45 -15 -20 -19 -21 -34 -2 -18 17 14 116 23 116 10 0
-5 -6 -9 -14 -9 -8 0 -17 -4 -21 -9 -5 -9 104 -3 115 6 2 2 -2 8 -10 14 -13 8
-13 10 0 19 23 15 33 12 27 -10 -6 -22 7 -25 63 -14 19 4 27 10 20 14 -17 10
-8 22 34 44 33 18 38 18 73 3 21 -8 47 -18 58 -22 l20 -7 -20 -8 c-20 -9 -20
-9 1 -9 11 -1 24 3 30 8 5 5 40 11 78 13 46 3 72 9 80 20 13 17 58 17 64 0 5
-15 28 -15 125 0 56 8 77 16 77 26 0 12 -10 14 -52 9 -32 -4 -75 0 -108 8 -30
7 -45 14 -32 14 13 1 31 8 40 17 13 13 29 15 84 11 l68 -6 0 39 0 39 -50 7
c-50 7 -60 24 -14 24 14 0 22 4 19 10 -3 6 -19 10 -36 10 -16 0 -29 5 -29 10
0 13 -37 13 -45 1z m-79 -78 c-10 -10 -19 5 -10 18 6 11 8 11 12 0 2 -7 1 -15
-2 -18z m41 -39 c-3 -3 -12 -4 -19 -1 -8 3 -5 6 6 6 11 1 17 -2 13 -5z m-227
-49 c0 -3 -10 -10 -22 -14 -21 -8 -21 -10 -5 -16 10 -4 28 -3 40 3 33 17 109
19 114 5 3 -8 -5 -13 -21 -13 -14 0 -26 -4 -26 -10 0 -5 -5 -10 -11 -10 -5 0
-8 4 -5 9 3 4 -12 5 -34 1 -60 -11 -90 -2 -90 26 0 20 5 24 30 24 17 0 30 -2
30 -5z m-173 -21 c-3 -3 -12 -4 -19 -1 -8 3 -5 6 6 6 11 1 17 -2 13 -5z"/>
<path d="M10125 2450 c-4 -6 12 -10 40 -10 28 0 44 4 40 10 -3 6 -21 10 -40
10 -19 0 -37 -4 -40 -10z"/>
<path d="M9450 2430 c0 -6 18 -10 40 -10 52 0 52 14 0 17 -22 2 -40 -2 -40 -7z"/>
<path d="M9262 2381 c-11 -7 -11 -9 2 -14 10 -4 16 -1 16 8 0 17 -1 17 -18 6z"/>
<path d="M9650 2354 c0 -12 6 -15 23 -10 12 3 28 6 35 6 6 0 12 5 12 10 0 6
-16 10 -35 10 -26 0 -35 -4 -35 -16z"/>
<path d="M10030 2350 c0 -5 5 -10 10 -10 6 0 10 5 10 10 0 6 -4 10 -10 10 -5
0 -10 -4 -10 -10z"/>
<path d="M10124 2348 c-3 -4 23 -8 57 -8 34 0 59 3 55 7 -10 11 -106 12 -112
1z"/>
<path d="M9265 2331 c-6 -5 -21 -11 -35 -14 -18 -3 -15 -5 13 -6 27 -1 37 3
37 14 0 17 -3 18 -15 6z"/>
<path d="M9154 2315 c-18 -14 -18 -14 9 -15 16 0 26 4 23 9 -4 5 0 12 6 14 9
4 8 6 -3 6 -8 1 -24 -6 -35 -14z"/>
<path d="M9290 2300 c0 -6 20 -9 45 -8 29 1 41 4 33 9 -18 12 -78 11 -78 -1z"/>
<path d="M10149 2296 c8 -10 8 -15 1 -18 -6 -2 12 -3 40 -3 36 0 50 4 50 14 0
10 -10 12 -40 7 -25 -4 -40 -2 -40 4 0 5 -5 10 -11 10 -8 0 -8 -4 0 -14z"/>
<path d="M9058 2293 c7 -3 16 -2 19 1 4 3 -2 6 -13 5 -11 0 -14 -3 -6 -6z"/>
<path d="M9140 2280 c0 -5 19 -10 43 -10 31 0 38 3 27 10 -20 13 -70 13 -70 0z"/>
<path d="M9965 2280 c-3 -5 1 -10 10 -10 9 0 13 5 10 10 -3 6 -8 10 -10 10 -2
0 -7 -4 -10 -10z"/>
<path d="M8908 2273 c6 -2 18 -2 25 0 6 3 1 5 -13 5 -14 0 -19 -2 -12 -5z"/>
<path d="M9060 2262 c0 -5 21 -9 47 -9 32 0 41 3 28 8 -27 10 -75 11 -75 1z"/>
<path d="M9865 2260 c3 -5 11 -10 16 -10 6 0 7 5 4 10 -3 6 -11 10 -16 10 -6
0 -7 -4 -4 -10z"/>
<path d="M8985 2250 c3 -5 1 -10 -6 -10 -7 0 -9 -3 -6 -6 4 -4 12 -2 19 3 7 6
22 13 33 16 13 3 8 5 -13 6 -20 1 -31 -3 -27 -9z"/>
<path d="M10005 2230 c-7 -12 12 -12 40 0 18 8 17 9 -7 9 -15 1 -30 -3 -33 -9z"/>
<path d="M10109 2224 c17 -7 49 -11 73 -9 26 3 45 -1 50 -8 5 -8 8 -4 8 10 0
20 -4 21 -81 21 -75 -1 -79 -2 -50 -14z"/>
<path d="M9933 2223 c9 -2 25 -2 35 0 9 3 1 5 -18 5 -19 0 -27 -2 -17 -5z"/>
<path d="M9775 2210 c-3 -5 3 -10 15 -10 12 0 18 5 15 10 -3 6 -10 10 -15 10
-5 0 -12 -4 -15 -10z"/>
<path d="M9090 2190 c8 -5 20 -10 25 -10 6 0 3 5 -5 10 -8 5 -19 10 -25 10 -5
0 -3 -5 5 -10z"/>
<path d="M9920 2191 c-32 -10 -14 -18 58 -24 34 -3 52 0 52 7 0 7 17 10 45 8
25 -2 45 0 45 6 0 12 -164 14 -200 3z m97 -7 c-3 -3 -12 -4 -19 -1 -8 3 -5 6
6 6 11 1 17 -2 13 -5z"/>
<path d="M8908 2172 c-16 -2 -28 -8 -28 -13 0 -13 49 -10 90 6 l35 14 -35 -2
c-19 -1 -47 -3 -62 -5z"/>
<path d="M9858 2173 c7 -3 16 -2 19 1 4 3 -2 6 -13 5 -11 0 -14 -3 -6 -6z"/>
<path d="M10115 2156 c44 -13 106 -9 69 4 -10 4 -39 8 -64 8 l-45 0 40 -12z"/>
<path d="M8780 2142 c-8 -3 -20 -11 -27 -17 -9 -10 -6 -12 18 -10 35 2 58 20
37 27 -7 3 -20 3 -28 0z"/>
<path d="M9955 2140 c-8 -12 10 -21 29 -14 9 3 22 1 29 -5 15 -12 123 -3 110
10 -12 11 -45 14 -70 5 -13 -4 -28 -4 -35 0 -18 11 -57 14 -63 4z"/>
<path d="M9663 2123 c-13 -2 -23 -8 -23 -13 0 -13 -54 -19 -67 -8 -9 7 -17 7
-27 -1 -8 -7 -34 -14 -58 -16 -60 -5 -128 -24 -128 -35 0 -15 43 -12 67 5 16
11 22 12 26 2 3 -9 10 -7 25 6 22 20 42 16 42 -9 0 -8 10 -14 25 -14 14 0 25
-6 25 -12 0 -9 4 -8 10 2 8 13 10 12 10 -2 0 -15 9 -18 48 -18 29 0 42 3 34 9
-8 5 8 6 37 3 34 -3 51 -1 51 7 0 6 -15 11 -32 11 -25 0 -29 3 -18 10 8 5 31
10 50 10 24 0 31 3 21 9 -7 5 -11 13 -7 19 8 13 -20 35 -36 29 -8 -4 -7 -6 5
-6 9 -1 17 -7 17 -15 0 -9 -17 -16 -45 -20 -25 -4 -45 -11 -45 -17 0 -11 -65
-10 -100 1 -14 4 -19 8 -12 9 7 1 11 5 8 10 -4 5 26 8 69 8 72 -2 100 7 53 16
l-23 4 23 2 c13 0 20 6 17 11 -3 6 -9 9 -13 9 -4 -1 -17 -4 -29 -6z"/>
<path d="M9778 2123 c7 -3 16 -2 19 1 4 3 -2 6 -13 5 -11 0 -14 -3 -6 -6z"/>
<path d="M8663 2113 c11 -3 16 -11 13 -19 -7 -17 6 -18 22 -2 20 20 14 28 -20
27 -19 -1 -25 -3 -15 -6z"/>
<path d="M9800 2090 c0 -5 4 -10 9 -10 6 0 13 5 16 10 3 6 -1 10 -9 10 -9 0
-16 -4 -16 -10z"/>
<path d="M8565 2080 c-9 -15 9 -19 45 -10 40 9 39 11 -8 15 -18 1 -35 -1 -37
-5z"/>
<path d="M9925 2070 c3 -5 23 -10 43 -9 33 1 34 2 12 9 -36 12 -62 12 -55 0z"/>
<path d="M10028 2073 c6 -2 18 -2 25 0 6 3 1 5 -13 5 -14 0 -19 -2 -12 -5z"/>
<path d="M8528 2053 c7 -3 16 -2 19 1 4 3 -2 6 -13 5 -11 0 -14 -3 -6 -6z"/>
<path d="M9313 2043 c-24 -16 -30 -33 -13 -33 10 0 50 36 50 45 0 9 -14 4 -37
-12z"/>
<path d="M8115 2040 c-19 -8 -19 -9 3 -9 12 -1 22 4 22 9 0 6 -1 10 -2 9 -2 0
-12 -4 -23 -9z"/>
<path d="M8240 2040 c0 -5 5 -10 11 -10 5 0 7 5 4 10 -3 6 -8 10 -11 10 -2 0
-4 -4 -4 -10z"/>
<path d="M9965 2040 c3 -5 12 -7 20 -3 21 7 19 13 -6 13 -11 0 -18 -4 -14 -10z"/>
<path d="M10015 2040 c3 -5 15 -10 25 -10 10 0 22 5 25 10 4 6 -7 10 -25 10
-18 0 -29 -4 -25 -10z"/>
<path d="M8423 2033 c15 -2 39 -2 55 0 15 2 2 4 -28 4 -30 0 -43 -2 -27 -4z"/>
<path d="M9815 2030 c3 -5 17 -10 30 -10 18 0 23 -4 19 -15 -5 -11 2 -15 26
-15 27 0 30 2 21 14 -10 11 -6 16 16 24 24 9 17 11 -45 11 -46 1 -71 -3 -67
-9z"/>
<path d="M10123 2033 c9 -2 23 -2 30 0 6 3 -1 5 -18 5 -16 0 -22 -2 -12 -5z"/>
<path d="M10181 2036 c2 -2 18 -6 34 -10 22 -5 26 -4 15 4 -14 9 -59 15 -49 6z"/>
<path d="M9396 2021 c6 -7 24 -13 41 -14 24 -1 29 -5 21 -14 -8 -10 -4 -13 16
-13 15 0 25 4 22 9 -7 10 17 21 46 21 12 0 19 2 16 5 -3 3 -43 8 -89 11 -61 4
-81 3 -73 -5z"/>
<path d="M9205 2011 c3 -5 -3 -11 -12 -13 -10 -2 -13 -6 -8 -9 14 -8 75 9 75
21 0 6 -14 10 -31 10 -16 0 -28 -4 -24 -9z"/>
<path d="M9346 2011 c-4 -5 1 -8 9 -7 21 3 31 16 12 16 -9 0 -18 -4 -21 -9z"/>
<path d="M9770 1995 c-7 -8 -22 -15 -34 -14 -19 1 -19 2 4 10 17 6 10 7 -25 3
-27 -3 -58 -10 -68 -16 -10 -5 -31 -6 -48 -3 -22 5 -29 3 -29 -8 0 -18 -22
-28 -39 -18 -10 6 -9 12 3 24 20 19 20 27 2 27 -7 0 -16 -9 -19 -21 -5 -19
-11 -20 -62 -14 -39 4 -62 2 -72 -7 -12 -10 -17 -9 -28 5 -7 9 -22 17 -34 17
-26 0 -27 -8 -3 -26 14 -10 15 -15 5 -25 -10 -10 -16 -10 -24 -2 -9 9 -19 8
-41 -3 -16 -8 -59 -17 -96 -21 -76 -6 -116 -21 -67 -24 17 -1 37 -1 45 0 8 1
53 6 100 12 47 5 87 14 88 19 2 6 12 10 23 10 11 0 22 7 25 15 4 9 19 15 35
15 23 0 29 -4 29 -21 0 -15 4 -19 16 -15 9 3 20 6 25 6 6 0 7 5 4 10 -3 6 1
10 10 10 9 0 13 -4 10 -10 -3 -5 -1 -10 4 -10 6 0 11 5 11 11 0 8 4 8 14 0 11
-10 21 -9 46 4 35 18 50 14 30 -10 -11 -13 -8 -15 17 -15 16 0 33 3 37 7 7 7
22 11 76 17 19 3 46 9 60 15 l25 10 -22 7 c-26 7 -21 24 8 24 10 0 19 5 19 10
0 16 -46 12 -60 -5z m-65 -35 c3 -5 -3 -10 -14 -10 -12 0 -21 5 -21 10 0 6 6
10 14 10 8 0 18 -4 21 -10z"/>
<path d="M10145 2000 c-8 -13 5 -13 25 0 13 8 13 10 -2 10 -9 0 -20 -4 -23
-10z"/>
<path d="M9140 1990 c0 -5 4 -10 9 -10 6 0 13 5 16 10 3 6 -1 10 -9 10 -9 0
-16 -4 -16 -10z"/>
<path d="M9063 1973 c9 -2 23 -2 30 0 6 3 -1 5 -18 5 -16 0 -22 -2 -12 -5z"/>
<path d="M8040 1960 c0 -5 5 -10 10 -10 6 0 10 5 10 10 0 6 -4 10 -10 10 -5 0
-10 -4 -10 -10z"/>
<path d="M9200 1960 c0 -6 18 -9 40 -8 52 4 52 18 0 18 -22 0 -40 -5 -40 -10z"/>
<path d="M9878 1953 c12 -2 32 -2 45 0 12 2 2 4 -23 4 -25 0 -35 -2 -22 -4z"/>
<path d="M9973 1953 c-7 -2 -13 -11 -13 -18 0 -17 31 -28 44 -15 7 7 6 10 -2
10 -6 0 -9 7 -6 15 6 15 -1 18 -23 8z"/>
<path d="M10025 1950 c-4 -6 6 -10 22 -10 22 0 25 2 13 10 -19 12 -27 12 -35
0z"/>
<path d="M10140 1950 c0 -5 6 -11 13 -11 6 -1 -1 -5 -18 -9 -28 -7 -28 -8 -5
-9 14 0 32 4 40 9 13 9 13 11 0 20 -19 13 -30 13 -30 0z"/>
<path d="M9075 1940 c27 -12 35 -12 35 0 0 6 -12 10 -27 9 -25 0 -26 -1 -8 -9z"/>
<path d="M7845 1930 c-3 -6 1 -7 9 -4 18 7 21 14 7 14 -6 0 -13 -4 -16 -10z"/>
<path d="M9547 1902 c-23 -25 -21 -38 6 -47 20 -7 19 -8 -10 -14 -18 -3 -42
-14 -53 -23 -26 -23 -46 -23 -72 2 -12 11 -34 20 -50 20 -16 0 -27 5 -25 11 2
13 -52 19 -59 7 -3 -4 6 -8 20 -8 14 0 26 -4 26 -10 0 -5 10 -10 23 -10 12 0
28 -4 36 -9 20 -13 -4 -24 -36 -17 -13 4 -31 2 -37 -4 -9 -7 -23 -7 -45 1 -36
13 -41 28 -8 30 12 1 4 5 -18 9 -22 4 -30 8 -18 9 31 2 40 21 9 21 -13 0 -31
-3 -40 -6 -13 -5 -12 -9 4 -26 11 -12 17 -25 14 -29 -7 -12 -33 1 -28 14 12
31 -94 41 -232 22 -36 -5 -42 -3 -40 12 1 14 -9 19 -44 24 -55 8 -79 -1 -55
-21 13 -11 21 -11 36 -2 23 15 49 16 49 2 0 -5 -9 -10 -19 -10 -11 0 -23 -4
-26 -10 -3 -5 -30 -10 -59 -10 -49 0 -76 -12 -76 -33 0 -6 5 -5 13 0 23 19 63
22 90 8 20 -10 35 -11 52 -5 20 7 25 6 25 -5 0 -8 5 -15 10 -15 6 0 10 5 10
10 0 14 27 12 33 -2 3 -8 6 -6 6 5 1 12 9 17 29 16 23 -2 24 -2 5 -6 -13 -2
-23 -11 -23 -19 0 -8 -7 -17 -15 -20 -8 -4 -15 -12 -15 -20 0 -11 23 -14 111
-13 105 2 111 3 119 24 13 33 102 49 128 23 8 -8 15 -8 26 1 9 8 16 8 20 2 4
-6 -2 -16 -14 -23 -26 -16 -26 -28 0 -28 11 0 20 6 20 14 0 22 60 49 76 35 11
-9 14 -8 14 1 0 9 14 11 55 7 30 -3 57 -1 60 4 4 5 -5 9 -19 9 -24 0 -33 10
-21 22 11 11 80 -8 77 -22 -3 -11 0 -11 12 -1 19 16 84 23 91 10 10 -15 34
-10 57 10 l20 20 -33 6 c-53 9 -117 2 -112 -12 3 -7 1 -13 -4 -13 -16 0 -32
22 -26 36 3 9 -2 14 -16 14 -24 0 -28 15 -6 24 8 3 15 10 15 16 0 16 -25 12
-43 -8z m-411 -101 c-4 -5 -14 -8 -24 -5 -11 4 -9 -1 7 -14 20 -16 21 -20 7
-25 -10 -4 -14 -3 -11 3 3 5 -10 12 -29 16 -30 5 -33 8 -21 20 31 31 90 36 71
5z"/>
<path d="M9790 1902 c0 -3 8 -11 18 -18 15 -12 15 -15 2 -23 -8 -6 -11 -13 -7
-17 4 -4 15 0 24 9 10 8 38 17 63 20 l45 4 -43 1 c-26 1 -41 6 -37 12 7 11 4
12 -37 14 -16 1 -28 0 -28 -2z"/>
<path d="M7685 1890 c-3 -5 3 -10 15 -10 12 0 18 5 15 10 -3 6 -10 10 -15 10
-5 0 -12 -4 -15 -10z"/>
<path d="M8995 1889 c-4 -6 -19 -7 -36 -4 -22 5 -29 3 -29 -8 0 -12 12 -14 58
-12 73 3 72 3 72 16 0 6 -7 9 -15 5 -8 -3 -15 -1 -15 4 0 13 -27 13 -35 -1z"/>
<path d="M8572 1881 c-10 -6 -8 -10 10 -14 14 -4 29 -1 38 8 13 13 11 15 -10
15 -14 0 -31 -4 -38 -9z"/>
<path d="M8684 1883 c38 -4 38 -5 17 -20 -17 -12 -25 -12 -37 -2 -8 6 -18 9
-21 5 -4 -4 -1 -12 7 -17 12 -9 12 -10 -3 -5 -13 4 -29 -4 -49 -24 -33 -33
-33 -37 -3 -40 36 -4 46 0 43 18 -2 12 5 18 25 20 15 2 25 8 22 13 -4 5 4 10
17 11 13 1 30 2 38 4 8 1 26 3 40 4 19 2 15 5 -15 10 -34 6 -36 7 -11 9 52 2
19 14 -46 16 -35 1 -46 0 -24 -2z"/>
<path d="M9415 1880 c-3 -5 3 -10 14 -10 12 0 21 5 21 10 0 6 -6 10 -14 10 -8
0 -18 -4 -21 -10z"/>
<path d="M8497 1873 c-4 -4 -24 -7 -45 -8 -20 -1 -48 -6 -62 -12 -14 -6 -34
-12 -44 -14 -24 -5 -33 -29 -11 -29 10 0 13 5 9 11 -5 9 6 10 39 7 32 -4 44
-2 41 6 -3 8 7 11 32 8 24 -3 34 -1 30 6 -3 6 6 15 21 20 16 6 21 11 12 11 -9
1 -19 -2 -22 -6z"/>
<path d="M9635 1871 c-8 -14 14 -24 28 -13 7 6 26 12 42 15 22 3 17 4 -17 6
-26 0 -49 -3 -53 -8z"/>
<path d="M9960 1870 c0 -5 9 -10 20 -10 11 0 20 5 20 10 0 6 -9 10 -20 10 -11
0 -20 -4 -20 -10z"/>
<path d="M10130 1870 c19 -13 30 -13 30 0 0 6 -10 10 -22 10 -19 0 -20 -2 -8
-10z"/>
<path d="M7568 1863 c7 -3 16 -2 19 1 4 3 -2 6 -13 5 -11 0 -14 -3 -6 -6z"/>
<path d="M10220 1860 c-9 -6 -10 -10 -3 -10 6 0 15 5 18 10 8 12 4 12 -15 0z"/>
<path d="M7430 1846 c0 -2 9 -6 20 -9 11 -3 18 -1 14 4 -5 9 -34 13 -34 5z"/>
<path d="M9858 1833 c7 -3 16 -2 19 1 4 3 -2 6 -13 5 -11 0 -14 -3 -6 -6z"/>
<path d="M8490 1815 c-8 -9 -8 -15 -2 -15 12 0 26 19 19 26 -2 2 -10 -2 -17
-11z"/>
<path d="M10175 1820 c-16 -4 -26 -8 -21 -9 5 0 3 -8 -4 -17 -12 -13 -8 -15
26 -13 22 2 45 -1 52 -5 7 -4 12 -1 12 8 0 9 -7 16 -15 16 -9 0 -12 6 -9 15 7
16 4 17 -41 5z"/>
<path d="M8065 1810 c-16 -6 -14 -8 13 -7 17 0 32 4 32 9 0 10 -18 9 -45 -2z"/>
<path d="M8193 1813 c33 -5 36 -23 5 -24 -18 -1 -19 -2 -5 -6 17 -4 87 22 87
32 0 3 -26 4 -57 4 -32 -1 -46 -4 -30 -6z"/>
<path d="M7950 1800 c-8 -5 -11 -12 -7 -16 4 -4 13 -2 19 4 15 15 7 24 -12 12z"/>
<path d="M10060 1800 c0 -5 5 -10 10 -10 6 0 10 5 10 10 0 6 -4 10 -10 10 -5
0 -10 -4 -10 -10z"/>
<path d="M10100 1800 c0 -5 7 -10 16 -10 8 0 12 5 9 10 -3 6 -10 10 -16 10 -5
0 -9 -4 -9 -10z"/>
<path d="M8343 1793 c9 -2 23 -2 30 0 6 3 -1 5 -18 5 -16 0 -22 -2 -12 -5z"/>
<path d="M9813 1784 c-18 -8 -33 -20 -34 -27 0 -6 -14 -23 -30 -36 -27 -21
-31 -22 -42 -8 -8 11 -21 14 -39 10 -30 -6 -29 -23 2 -23 10 0 20 -7 24 -15 7
-18 32 -20 39 -2 6 15 57 21 57 7 0 -6 7 -10 15 -10 15 0 19 16 16 53 -1 9 2
17 7 17 5 0 12 11 14 25 3 14 5 25 4 24 0 0 -16 -7 -33 -15z m-26 -60 c-3 -3
-12 -4 -19 -1 -8 3 -5 6 6 6 11 1 17 -2 13 -5z"/>
<path d="M9920 1790 c0 -5 8 -10 18 -10 10 0 23 -5 30 -12 15 -15 26 -4 19 17
-7 17 -67 22 -67 5z"/>
<path d="M7110 1769 c0 -5 5 -7 10 -4 6 3 10 8 10 11 0 2 -4 4 -10 4 -5 0 -10
-5 -10 -11z"/>
<path d="M8364 1762 c-17 -13 -15 -14 21 -7 58 10 79 24 34 23 -20 -1 -45 -8
-55 -16z"/>
<path d="M9204 1754 c3 -8 -1 -11 -9 -8 -10 4 -12 0 -8 -16 3 -12 17 -26 30
-31 15 -5 21 -14 17 -21 -5 -8 -2 -9 10 -5 10 4 20 7 22 7 11 0 2 31 -11 36
-16 6 -21 44 -6 44 5 0 14 -7 21 -15 15 -18 31 -10 23 11 -4 11 -18 14 -50 13
-30 -2 -42 -7 -39 -15z"/>
<path d="M9555 1760 c20 -6 0 -7 -62 -3 -88 5 -93 4 -93 -15 0 -20 -33 -32
-91 -32 -16 0 -29 -5 -29 -10 0 -18 28 -22 63 -11 37 12 79 5 56 -10 -10 -6
-9 -10 6 -15 11 -4 23 -12 27 -18 5 -7 8 -4 8 7 0 11 8 17 24 17 14 0 28 5 32
11 7 12 75 3 84 -11 3 -4 26 -10 53 -14 40 -6 47 -5 47 9 0 12 -6 15 -20 10
-25 -8 -51 11 -43 31 5 13 -12 19 -44 15 -7 -1 -13 3 -13 10 0 8 15 10 50 6
29 -4 52 -2 56 4 9 15 5 17 -71 23 -50 3 -61 2 -40 -4z m-74 -61 c8 -16 5 -18
-26 -17 -20 1 -31 5 -24 9 6 4 8 12 5 18 -4 6 -4 16 -1 21 8 13 31 -3 46 -31z"/>
<path d="M9680 1758 c0 -11 42 -21 49 -11 3 6 13 12 21 15 8 3 -4 5 -27 4 -24
0 -43 -4 -43 -8z"/>
<path d="M10025 1760 c3 -5 18 -10 33 -9 24 0 25 1 7 9 -28 12 -47 12 -40 0z"/>
<path d="M9864 1745 c25 -19 31 -19 46 0 11 13 7 15 -26 15 -36 -1 -38 -2 -20
-15z"/>
<path d="M9935 1750 c3 -5 15 -10 26 -10 11 0 17 5 14 10 -3 6 -15 10 -26 10
-11 0 -17 -4 -14 -10z"/>
<path d="M8068 1733 c7 -3 16 -2 19 1 4 3 -2 6 -13 5 -11 0 -14 -3 -6 -6z"/>
<path d="M8880 1730 c0 -5 7 -10 15 -10 8 0 15 5 15 10 0 6 -7 10 -15 10 -8 0
-15 -4 -15 -10z"/>
<path d="M8930 1700 c-7 -21 -4 -60 5 -63 19 -7 50 8 50 23 0 8 13 18 30 22
19 5 11 5 -22 2 -36 -3 -53 -1 -56 8 -3 7 -6 11 -7 8z"/>
<path d="M3055 1680 c4 -6 11 -8 16 -5 14 9 11 15 -7 15 -8 0 -12 -5 -9 -10z"/>
<path d="M8870 1680 c0 -5 7 -7 15 -4 8 4 15 8 15 10 0 2 -7 4 -15 4 -8 0 -15
-4 -15 -10z"/>
<path d="M9055 1680 c-3 -5 -2 -10 4 -10 6 0 8 -6 5 -14 -4 -10 4 -16 25 -21
36 -8 41 -7 41 3 0 4 -10 7 -22 7 -26 0 -37 25 -11 26 10 1 22 1 26 0 5 -1 6
3 2 9 -8 13 -62 13 -70 0z"/>
<path d="M9160 1677 c0 -22 22 -37 55 -37 l30 1 -33 17 c-18 10 -30 21 -26 25
4 4 0 7 -9 7 -9 0 -17 -6 -17 -13z"/>
<path d="M8053 1665 c-9 -24 0 -25 26 -4 23 19 23 19 2 19 -12 0 -24 -7 -28
-15z"/>
<path d="M8731 1659 c5 -11 14 -17 20 -14 15 10 10 22 -11 28 -17 4 -18 2 -9
-14z"/>
<path d="M8815 1669 c-12 -19 3 -22 27 -5 l22 16 -21 0 c-12 0 -25 -5 -28 -11z"/>
<path d="M10118 1673 c7 -3 16 -2 19 1 4 3 -2 6 -13 5 -11 0 -14 -3 -6 -6z"/>
<path d="M3805 1660 c-3 -5 3 -10 14 -10 12 0 21 5 21 10 0 6 -6 10 -14 10 -8
0 -18 -4 -21 -10z"/>
<path d="M3418 1643 c7 -3 16 -2 19 1 4 3 -2 6 -13 5 -11 0 -14 -3 -6 -6z"/>
<path d="M4680 1600 c-23 -7 -23 -8 -3 -9 12 -1 25 4 28 9 3 6 5 10 3 9 -2 -1
-14 -5 -28 -9z"/>
<path d="M4520 1575 c-10 -13 -9 -15 9 -15 11 0 21 4 21 9 0 18 -18 21 -30 6z"/>
<path d="M10225 1580 c-3 -5 -1 -10 4 -10 6 0 11 5 11 10 0 6 -2 10 -4 10 -3
0 -8 -4 -11 -10z"/>
<path d="M5240 1570 c-12 -8 -11 -10 8 -10 12 0 22 5 22 10 0 13 -11 13 -30 0z"/>
<path d="M5725 1560 c-38 -4 -62 -7 -52 -8 9 -1 17 -6 17 -12 0 -5 8 -10 18
-11 27 -2 -48 -21 -93 -24 -22 -1 -52 -6 -67 -10 -18 -5 -28 -3 -28 4 0 6 12
11 26 11 15 0 23 4 18 11 -4 7 3 10 17 9 13 -1 42 -1 64 0 39 2 38 3 -15 11
-65 11 -162 1 -120 -12 19 -5 13 -7 -25 -7 -38 0 -44 2 -25 8 23 7 24 8 6 15
-13 6 -21 4 -24 -3 -2 -7 -10 -12 -18 -12 -8 0 -14 -4 -14 -9 0 -5 6 -9 13 -8
43 1 67 -4 61 -14 -3 -6 -17 -9 -30 -6 -14 2 -27 0 -30 -5 -3 -5 -13 -7 -21
-4 -8 3 -23 2 -32 -4 -10 -5 -59 -12 -108 -15 -50 -3 -105 -8 -124 -11 -176
-27 -191 -28 -259 -25 -52 3 -53 4 -21 11 19 4 61 11 93 14 204 22 275 40 143
36 -99 -3 -100 -3 -85 15 10 13 9 15 -9 15 -15 0 -21 -6 -21 -21 0 -19 -5 -21
-50 -17 -28 1 -50 0 -50 -3 0 -3 -51 -9 -112 -13 -62 -3 -129 -9 -149 -12 -25
-4 -40 -2 -52 10 -17 18 -72 22 -82 6 -4 -6 9 -10 32 -11 l38 -1 -32 -8 c-18
-4 -63 -9 -100 -12 -38 -3 -56 -3 -40 -1 15 2 27 9 27 15 0 7 -12 8 -32 3 -18
-4 -73 -9 -123 -11 -49 -2 -114 -8 -144 -14 -30 -5 -70 -10 -88 -10 -23 0 -33
-5 -33 -15 0 -8 -4 -15 -10 -15 -5 0 -10 5 -10 10 0 6 -12 10 -27 9 -16 0 -22
-3 -15 -6 18 -7 15 -23 -5 -23 -10 -1 -35 -7 -55 -14 -21 -8 -38 -11 -38 -7 0
4 -28 4 -62 1 -35 -4 -78 -2 -97 3 -19 5 -45 7 -58 4 -19 -4 -22 -1 -18 14 8
25 1 24 -29 -5 l-24 -25 26 -9 c46 -16 -97 -26 -248 -17 -74 4 -169 7 -210 7
-44 0 -77 4 -81 10 -5 8 -15 8 -36 0 -15 -7 -66 -12 -113 -11 -204 3 -325 -1
-310 -11 8 -5 29 -10 45 -10 17 0 36 -4 44 -9 21 -13 -18 -23 -87 -21 -31 1
-73 1 -92 0 -31 -1 -32 -2 -13 -10 13 -5 82 -9 154 -9 80 0 136 -4 142 -10 8
-8 -12 -11 -68 -11 -73 0 -78 -1 -58 -15 11 -8 39 -17 62 -21 41 -6 51 -17 30
-29 -7 -5 -3 -12 9 -21 14 -10 28 -11 53 -4 55 16 79 13 79 -11 0 -19 1 -19
16 -5 12 12 40 16 117 18 130 2 147 0 174 -18 32 -20 87 -17 179 9 47 14 89
20 104 17 24 -6 140 -5 329 4 55 3 88 9 98 19 16 16 66 11 60 -6 -2 -6 -21
-16 -43 -22 -21 -5 -46 -14 -54 -20 -8 -5 -64 -17 -125 -25 l-110 -16 3 -28
c3 -24 1 -28 -13 -22 -10 3 -23 2 -29 -2 -23 -19 -76 -24 -262 -27 -201 -4
-274 -15 -274 -41 0 -12 5 -14 18 -9 34 15 62 17 62 6 0 -7 22 -11 59 -11 42
0 60 -4 64 -14 8 -21 -17 -27 -125 -31 -54 -2 -114 -9 -135 -14 -21 -6 -78
-18 -128 -27 -49 -9 -94 -20 -100 -24 -5 -4 -20 -6 -33 -4 -13 2 -32 -1 -42
-6 -21 -11 -70 -4 -70 10 0 5 14 11 30 15 17 4 37 13 45 21 8 8 23 17 34 19
11 2 28 8 38 13 10 5 24 7 31 5 17 -7 15 24 -3 31 -8 3 -14 0 -12 -7 3 -18
-45 -21 -55 -3 -11 20 -32 21 -47 2 -6 -7 -33 -16 -59 -20 -26 -3 -62 -15 -81
-27 -18 -11 -40 -18 -48 -15 -9 4 -17 -1 -20 -14 -3 -13 -16 -21 -37 -24 -38
-6 -106 -3 -106 4 0 3 -44 7 -99 8 -55 1 -116 8 -137 16 -32 12 -35 15 -14 15
63 2 170 25 170 38 0 7 -6 13 -12 13 -43 0 -228 -24 -228 -30 0 -4 10 -12 22
-18 19 -9 13 -11 -39 -11 -40 -1 -63 3 -66 12 -2 7 -8 8 -13 3 -5 -5 -4 -11 4
-13 26 -10 10 -22 -41 -33 -53 -11 -111 -1 -105 17 2 5 0 9 -4 11 -5 1 -8 -1
-8 -5 -1 -5 -8 -18 -16 -31 -8 -12 -12 -27 -9 -32 3 -6 -5 -10 -19 -10 -14 0
-26 5 -26 10 0 7 -6 7 -19 0 -11 -5 -29 -10 -40 -10 -12 0 -21 -7 -21 -15 0
-12 -11 -15 -48 -14 -67 3 -119 -28 -76 -45 9 -3 24 -6 34 -6 10 0 22 -5 26
-12 4 -7 3 -8 -4 -4 -7 4 -12 2 -12 -4 0 -7 -13 -9 -37 -5 -22 3 -39 1 -43 -5
-5 -8 -25 -8 -70 0 -35 6 -66 8 -69 3 -3 -4 -13 -10 -21 -12 -68 -17 -80 -18
-80 -9 0 12 -89 1 -107 -14 -12 -10 -46 -16 -98 -18 l-30 -1 24 -13 24 -13
-24 -17 c-21 -15 -24 -15 -27 -1 -4 17 -22 21 -22 4 0 -5 -5 -7 -10 -4 -6 4
-10 3 -9 -2 4 -22 -3 -33 -21 -33 -11 0 -20 -4 -20 -8 0 -8 -22 -12 -67 -12
-12 0 -25 -5 -28 -10 -3 -6 -15 -10 -26 -10 -10 0 -24 -9 -31 -20 -8 -12 -24
-20 -40 -20 -18 0 -29 -7 -33 -19 -3 -11 -12 -18 -19 -15 -7 3 -31 -12 -54
-32 -22 -21 -49 -39 -59 -40 -10 -2 -52 -13 -93 -25 -41 -12 -100 -24 -130
-26 -30 -2 -64 -8 -75 -13 -81 -36 -185 -68 -203 -63 -22 5 -22 4 -22 -121 l0
-126 3560 0 c3553 0 3560 0 3560 20 0 16 -7 20 -32 21 -50 3 -60 4 -98 13 -38
9 -72 34 -64 47 6 10 -29 29 -55 29 -11 0 -26 7 -35 15 -19 19 -36 19 -36 -1
0 -9 -5 -12 -11 -8 -7 4 -44 6 -84 5 -54 -2 -75 2 -85 14 -14 17 -29 19 -50 5
-12 -8 -12 -12 -2 -18 9 -6 4 -17 -18 -42 -16 -18 -30 -36 -30 -40 0 -12 -45
-8 -70 7 -19 11 -26 22 -23 34 3 11 10 19 15 19 6 0 8 7 4 15 -3 8 0 15 7 16
7 1 1 4 -13 9 -14 4 -35 5 -46 3 -12 -3 -25 0 -28 6 -4 6 -16 11 -27 11 -16 0
-20 6 -19 28 4 58 0 72 -19 72 -10 0 -24 7 -32 16 -10 13 -10 17 2 25 8 5 10
9 4 9 -5 1 4 8 20 17 17 10 34 16 39 15 14 -4 37 20 32 34 -8 21 17 33 83 38
78 6 113 -7 105 -40 -8 -31 26 -51 102 -58 48 -4 65 -2 74 9 7 8 9 15 6 15 -4
0 -2 9 4 20 6 12 21 20 35 20 26 0 34 15 13 23 -7 2 -9 8 -5 13 10 11 27 -15
27 -42 0 -23 32 -58 43 -47 4 3 7 1 7 -5 0 -7 10 -10 22 -9 12 2 41 -2 65 -9
24 -7 43 -11 43 -7 0 3 9 -5 20 -18 13 -16 22 -20 27 -13 12 16 70 37 82 29 6
-3 17 -3 24 2 19 12 40 13 53 2 21 -17 80 0 95 28 9 17 19 23 34 20 11 -3 30
-8 42 -10 12 -3 31 -11 43 -17 16 -8 27 -8 48 4 70 37 142 62 142 48 0 -5 47
-13 105 -17 58 -4 107 -11 110 -15 10 -16 -24 -64 -47 -67 -116 -13 -168 -16
-233 -11 -16 1 -69 1 -117 0 -74 -2 -91 -5 -109 -23 -11 -11 -32 -23 -47 -25
-14 -3 -28 -7 -32 -9 -4 -2 -33 -7 -66 -10 -72 -8 -73 -9 -70 -40 4 -38 8 -40
91 -50 17 -2 32 -4 35 -5 3 -1 13 -1 23 0 11 1 21 -7 24 -19 4 -16 14 -21 42
-22 20 -1 45 -3 56 -4 11 -1 32 -2 48 -3 17 -1 27 -8 27 -18 0 -12 6 -15 23
-10 12 3 25 6 30 6 4 0 7 7 7 15 0 11 12 15 50 15 l50 0 0 -34 0 -33 61 -7
c34 -3 322 -6 640 -6 484 0 579 2 579 14 0 10 -13 13 -51 10 -28 -2 -49 -1
-46 2 3 3 -3 14 -14 25 -11 11 -17 24 -14 29 4 6 -3 10 -14 10 -12 0 -21 7
-21 15 0 13 -19 19 -57 18 -7 -1 -13 3 -13 8 0 5 -18 9 -40 9 -24 0 -48 7 -59
17 -37 34 -46 40 -59 35 -6 -2 -12 3 -12 10 0 16 -71 12 -82 -5 -7 -12 -90 7
-125 29 -12 8 -31 14 -42 14 -32 0 -71 22 -71 40 0 9 10 22 23 29 21 11 21 11
-5 8 -15 -2 -26 -1 -23 2 2 4 0 13 -6 21 -7 13 -9 12 -9 -2 0 -10 -7 -18 -16
-18 -8 0 -13 -3 -11 -7 3 -5 -22 -9 -54 -11 -37 -2 -59 1 -59 7 0 6 14 11 30
11 17 0 30 5 30 11 0 5 -5 7 -11 3 -7 -4 -10 1 -7 12 2 13 13 19 33 20 56 1
65 4 65 19 0 8 4 15 9 15 12 0 22 -27 15 -44 -7 -18 33 -28 122 -30 77 -2 119
-23 130 -63 8 -30 40 -30 48 0 5 22 9 23 55 17 28 -3 48 -3 46 0 -4 7 76 3
153 -6 27 -3 42 -10 42 -20 0 -8 9 -14 20 -14 11 0 20 -4 20 -10 0 -18 23 -10
52 17 15 15 28 37 28 49 0 22 3 23 77 22 45 0 79 4 81 10 2 6 20 8 42 5 26 -4
40 -2 40 6 0 6 6 11 13 11 16 -1 67 -46 67 -60 0 -13 100 -13 134 0 29 11 35
30 10 30 -13 0 -14 3 -4 15 7 8 16 13 20 10 4 -2 31 -5 59 -6 36 -2 49 -5 41
-13 -11 -11 -14 -56 -3 -56 4 0 22 17 40 37 26 28 41 37 68 37 41 1 48 15 8
17 -26 2 -26 2 -5 6 25 5 62 -25 62 -49 0 -7 13 2 29 21 18 21 31 29 35 22 4
-6 1 -18 -7 -25 -8 -8 -13 -27 -12 -43 1 -15 3 -39 4 -53 l2 -25 13 25 14 24
4 -24 c3 -21 6 -19 18 19 11 34 22 47 43 54 40 13 77 -5 77 -38 0 -14 5 -25
10 -25 6 0 10 6 10 14 0 20 115 20 135 0 12 -12 14 -10 17 18 4 41 21 39 28
-3 4 -29 6 -31 19 -16 7 10 23 17 34 17 20 0 20 -1 -4 -26 l-24 -26 25 6 c14
3 19 3 13 0 -24 -11 -14 -26 12 -20 23 6 25 3 26 -26 l1 -33 8 30 c6 25 8 27
15 12 4 -10 5 -20 2 -23 -2 -3 5 -15 16 -28 45 -51 46 -43 47 622 0 588 -1
622 -17 622 -10 0 -28 3 -40 6 -19 5 -23 2 -23 -15 0 -18 -6 -21 -39 -21 -22
0 -41 4 -43 10 -1 5 -14 11 -28 12 -19 2 -25 -2 -25 -17 0 -12 -8 -21 -20 -23
-11 -2 -25 -10 -31 -18 -8 -10 -38 -17 -85 -21 -72 -5 -129 -21 -129 -35 0
-15 -77 -27 -158 -25 -45 1 -82 0 -82 -3 0 -3 -25 -4 -56 -3 -50 1 -55 -1 -51
-17 4 -17 -4 -19 -97 -24 -55 -2 -123 -7 -151 -10 -35 -4 -43 -3 -25 3 l25 9
-24 1 c-13 1 -29 -6 -35 -14 -10 -13 -14 -13 -40 0 -41 22 -73 19 -79 -6 -4
-16 -11 -20 -26 -16 -12 3 -21 1 -21 -5 0 -6 -15 -8 -34 -6 -19 2 -32 0 -29
-4 7 -13 -47 -53 -74 -55 -13 -1 -27 6 -33 16 -7 15 -18 17 -57 14 -44 -5 -50
-3 -62 21 -16 29 -58 36 -67 11 -4 -10 -13 -13 -25 -10 -11 4 -19 2 -19 -5 0
-7 -5 -8 -17 -2 -10 6 -27 6 -44 0 -19 -6 -34 -6 -48 2 -17 9 -22 8 -27 -4 -5
-12 -11 -13 -30 -4 -18 8 -34 8 -63 0 -21 -7 -49 -12 -63 -12 -13 0 -41 -9
-62 -19 -50 -26 -79 -29 -100 -12 -10 8 -41 15 -69 16 -29 1 -59 4 -67 7 -8 4
-36 12 -62 19 -26 7 -45 16 -42 21 3 4 43 7 89 7 60 0 91 4 108 16 13 8 31 13
40 9 9 -3 26 1 38 9 19 14 12 15 -86 13 -63 -1 -109 -6 -113 -12 -10 -15 -135
-24 -157 -11 -13 7 -20 5 -27 -7 -7 -13 -17 -16 -40 -11 -23 5 -35 2 -53 -15
-20 -19 -24 -19 -38 -6 -21 22 -87 3 -87 -24 0 -21 -15 -27 -24 -11 -4 5 -30
9 -59 9 -29 0 -70 5 -91 13 -29 11 -40 11 -54 1 -30 -22 -41 -24 -70 -17 l-27
7 25 11 c64 29 34 53 -45 37 -57 -12 -63 -18 -43 -38 10 -10 2 -12 -40 -11
-34 2 -52 7 -52 15 0 6 -7 15 -16 18 -24 9 -54 7 -54 -4 0 -5 -6 -7 -14 -4
-29 11 -24 -13 10 -49 34 -36 54 -40 54 -12 0 21 28 26 39 7 8 -15 14 -15 42
-5 27 11 37 10 55 -2 30 -20 65 -25 106 -16 19 5 45 4 58 -2 14 -5 34 -10 45
-11 11 -1 19 -7 18 -14 -2 -6 9 -15 25 -18 15 -4 30 -11 33 -16 21 -33 369
-34 369 -2 0 13 45 20 123 17 30 -1 37 13 10 20 -17 4 -17 5 0 6 9 0 17 5 17
10 0 5 8 11 18 15 9 3 23 9 30 12 7 3 12 -1 12 -10 0 -19 30 -36 61 -34 45 3
79 -2 79 -11 0 -5 -9 -7 -20 -4 -11 3 -20 0 -20 -6 0 -6 3 -12 8 -12 43 -7 62
-6 62 1 0 5 27 8 60 7 33 -1 60 -4 60 -7 -1 -17 -19 -30 -34 -24 -14 5 -17 3
-14 -12 2 -10 11 -19 20 -19 9 0 20 -4 24 -8 10 -10 44 -9 44 2 0 13 62 20 90
9 27 -11 67 -20 88 -21 17 -1 15 -10 -8 -30 -12 -10 -25 -15 -30 -12 -6 4 -10
-1 -10 -11 0 -13 6 -15 28 -10 46 11 92 15 88 7 -7 -11 170 -4 193 8 15 8 25
6 47 -12 16 -12 30 -24 32 -27 1 -4 39 -5 84 -3 53 2 86 -1 96 -10 8 -6 25
-10 37 -9 13 2 25 -3 28 -12 7 -18 5 -19 -85 -16 -63 2 -68 0 -68 -20 0 -15
10 -24 33 -33 17 -6 35 -10 40 -9 4 1 7 -2 7 -8 0 -5 9 -10 19 -10 11 0 23 -5
26 -10 8 -12 52 -13 59 -2 15 24 216 7 216 -18 0 -4 16 -7 36 -8 22 -1 42 -9
50 -19 11 -16 10 -19 -9 -28 -12 -5 -24 -12 -27 -16 -3 -3 -12 -8 -20 -11 -27
-9 27 -29 57 -22 25 7 25 8 8 15 -16 6 -12 8 15 8 19 0 50 3 67 7 29 5 34 3
42 -19 6 -14 18 -26 28 -27 74 -3 140 -14 152 -23 7 -6 24 -12 38 -13 13 0 29
-6 36 -13 9 -10 4 -11 -28 -6 -22 4 -43 10 -47 14 -4 4 -26 5 -48 3 -34 -4
-40 -7 -40 -28 0 -35 -26 -30 -33 6 -6 28 -27 43 -27 19 0 -6 -7 -18 -16 -27
-11 -10 -13 -17 -5 -20 6 -2 11 -10 11 -18 0 -18 -68 -16 -78 2 -4 7 -29 14
-57 17 -27 3 -62 8 -77 12 -22 6 -28 4 -28 -9 0 -9 -5 -16 -11 -16 -5 0 -8 4
-4 9 8 14 -33 34 -56 28 -11 -3 -25 0 -32 7 -21 21 -79 27 -109 12 -16 -8 -28
-11 -28 -7 0 20 -146 48 -160 30 -3 -3 -22 -9 -42 -12 -30 -5 -38 -3 -38 10 0
12 -3 13 -14 4 -10 -8 -16 -9 -21 -1 -8 14 -65 13 -65 -1 0 -8 -4 -8 -12 -2
-35 27 -43 22 -40 -26 2 -32 0 -42 -7 -32 -5 8 -6 21 -3 30 5 14 3 14 -11 2
-9 -7 -17 -18 -17 -23 0 -5 -10 -18 -22 -29 -29 -24 -129 -27 -152 -4 -8 8
-25 15 -38 15 -13 0 -29 5 -36 12 -6 6 -24 13 -39 15 -15 1 -43 5 -61 7 -19 2
-49 7 -68 11 -33 6 -34 5 -34 -30 0 -24 -5 -35 -15 -35 -19 0 -65 21 -65 31 0
13 -30 18 -55 9 -14 -5 -25 -17 -25 -27 0 -13 -3 -14 -12 -5 -7 7 -25 12 -40
12 -15 0 -28 5 -28 10 0 6 -6 10 -13 10 -7 0 -27 13 -44 29 -20 18 -35 25 -41
19 -6 -6 -12 -6 -16 1 -4 6 -21 11 -37 11 -17 0 -28 4 -24 10 7 12 -39 24 -60
16 -8 -3 -27 -1 -41 4 -17 7 -23 7 -19 0 4 -6 -7 -10 -27 -10 -35 0 -61 12
-58 26 1 5 -3 10 -9 12 -6 2 -11 -3 -11 -10 0 -11 -14 -14 -54 -14 -30 1 -52
4 -49 9 6 10 -1 9 -33 -8 -16 -8 -51 -15 -77 -15 -45 0 -50 2 -60 30 -14 36
-22 38 -31 8 -4 -15 -9 -19 -13 -12 -5 6 -20 14 -35 17 -15 4 -33 13 -40 20
-14 13 -16 13 -74 16 -20 0 -33 5 -29 11 4 6 -8 10 -28 10 -38 0 -48 -12 -40
-51 4 -21 -1 -26 -43 -41 -32 -11 -54 -14 -70 -8 -12 5 -53 11 -89 13 -42 3
-71 10 -76 18 -7 11 -10 9 -15 -8 -4 -13 -10 -21 -14 -18 -5 3 -11 1 -15 -4
-3 -5 -19 -17 -37 -25 -35 -18 -163 -23 -153 -6 4 6 -13 10 -44 10 -28 0 -51
5 -51 10 0 6 -6 10 -12 10 -7 0 -24 14 -37 30 -13 17 -32 30 -42 30 -28 0 -63
74 -49 101 11 20 3 41 -23 60 -17 12 50 31 71 20 11 -6 22 -8 25 -5 3 3 15 0
27 -6 14 -7 25 -8 33 -2 7 6 36 10 66 11 29 0 55 2 58 5 3 3 16 1 29 -4 13 -5
31 -7 39 -3 14 5 13 8 -4 20 -14 10 -54 15 -126 16 -115 2 -125 7 -125 60 0
22 -7 30 -39 43 -22 8 -41 24 -44 35 -6 21 -13 24 -69 34 -21 3 -37 10 -35 16
3 13 -73 40 -95 33 -9 -2 -31 4 -48 15 -25 15 -44 18 -90 14 -37 -4 -60 -2
-64 6 -4 6 -16 11 -27 11 -11 0 -18 4 -15 9 3 5 62 8 132 7 69 0 128 2 130 5
1 3 18 4 36 1 27 -4 31 -2 21 9 -15 16 -17 49 -3 49 6 0 10 18 10 39 0 22 6
42 13 45 6 3 1 3 -13 0 -14 -3 -36 -11 -49 -17 -16 -8 -25 -9 -28 -2 -2 6 -19
9 -37 7 -19 -2 -43 1 -53 7 -15 10 -14 10 10 5 27 -6 39 9 15 19 -21 9 12 27
48 27 36 0 70 30 53 47 -6 6 -8 21 -4 33 6 20 11 21 85 15 50 -3 81 -2 85 5 3
6 -4 10 -17 10 -13 0 -36 7 -52 15 -35 18 -47 19 -43 3 1 -9 -20 -14 -77 -16
-72 -3 -77 -2 -62 13 39 40 13 50 -104 43 -8 -1 -32 2 -52 7 -31 6 -38 4 -38
-9 0 -16 -12 -21 -23 -9 -13 12 16 33 47 34 28 0 29 1 9 9 -13 5 -23 15 -23
21 0 7 -8 5 -20 -6 -11 -10 -23 -15 -27 -12 -4 4 2 14 13 22 22 17 30 16 -91
5z m226 -98 c-7 -2 -18 1 -23 6 -8 8 -4 9 13 5 13 -4 18 -8 10 -11z m-48 -19
c-13 -2 -33 -2 -45 0 -13 2 -3 4 22 4 25 0 35 -2 23 -4z m-1106 -9 c-3 -3 -12
-4 -19 -1 -8 3 -5 6 6 6 11 1 17 -2 13 -5z m1283 -31 c0 -24 -15 -29 -39 -14
-12 7 -12 11 0 23 20 22 39 18 39 -9z m-1832 10 c-10 -2 -28 -2 -40 0 -13 2
-5 4 17 4 22 1 32 -1 23 -4z m452 -3 c-8 -5 -26 -10 -40 -10 -20 0 -22 2 -10
10 8 5 26 10 40 10 20 0 22 -2 10 -10z m97 4 c-3 -3 -12 -4 -19 -1 -8 3 -5 6
6 6 11 1 17 -2 13 -5z m-269 -21 c-10 -2 -26 -2 -35 0 -10 3 -2 5 17 5 19 0
27 -2 18 -5z m-172 -18 c-22 -17 -37 -19 -196 -35 -146 -14 -161 -17 -184 -26
-14 -5 -17 -3 -14 7 5 15 101 37 200 45 37 3 80 9 95 14 16 5 48 9 73 9 41 0
43 -1 26 -14z m-452 -79 c-3 -9 -16 -16 -28 -16 -17 0 -18 -2 -6 -10 29 -19
50 -12 51 18 1 15 3 20 6 10 3 -12 14 -16 39 -15 18 1 34 6 34 11 0 5 7 3 15
-4 8 -7 25 -10 40 -6 20 5 25 3 25 -14 0 -17 -7 -20 -38 -20 -47 0 -85 -24
-62 -40 12 -8 10 -10 -11 -10 -15 0 -32 7 -39 15 -14 17 -86 21 -92 4 -2 -6
-54 -15 -123 -20 -66 -6 -140 -14 -164 -19 -25 -4 -53 -5 -64 -1 -19 7 -18 9
9 37 16 16 38 30 49 30 11 1 38 4 60 7 22 4 66 9 98 13 31 4 57 12 57 18 0 6
15 12 33 12 41 2 98 12 105 19 9 9 13 -1 6 -19z m-1104 5 c0 -5 -6 -12 -12
-15 -7 -3 24 -4 69 -3 44 1 79 -1 76 -5 -5 -9 -145 -11 -167 -2 -29 11 -17 26
27 33 4 0 7 -3 7 -8z m3120 -31 c0 -5 -18 -10 -40 -10 -29 0 -40 -4 -40 -15 0
-16 -25 -21 -34 -6 -4 5 -3 16 0 25 5 12 20 16 60 16 30 0 54 -4 54 -10z
m-2835 -10 c-3 -5 -13 -10 -21 -10 -8 0 -12 5 -9 10 3 6 13 10 21 10 8 0 12
-4 9 -10z m-197 -40 c-3 -29 -48 -43 -48 -16 0 9 -8 16 -19 16 -10 0 -24 6
-30 14 -10 12 -3 14 44 13 53 -2 56 -3 53 -27z m1342 10 c-8 -5 -28 -10 -45
-10 -23 0 -27 3 -15 10 8 5 29 10 45 10 23 0 27 -3 15 -10z m-1290 -20 c0 -5
-7 -10 -16 -10 -8 0 -12 5 -9 10 3 6 10 10 16 10 5 0 9 -4 9 -10z m1093 -17
c-7 -2 -19 -2 -25 0 -7 3 -2 5 12 5 14 0 19 -2 13 -5z m5785 -75 c3 -14 -3
-18 -27 -18 -17 0 -31 5 -31 10 0 6 -9 10 -21 10 -11 0 -18 4 -15 8 2 4 24 8
48 7 32 0 43 -4 46 -17z m-1947 -17 c21 -20 38 -73 19 -54 -9 8 -33 10 -75 6
-47 -4 -70 -1 -98 12 -20 9 -37 21 -37 25 0 12 58 33 75 26 9 -3 14 -2 11 3
-10 15 89 -1 105 -18z m1649 19 c0 -5 -7 -7 -15 -4 -8 4 -15 8 -15 10 0 2 7 4
15 4 8 0 15 -4 15 -10z m-1877 -14 c13 -34 -50 -49 -91 -20 -35 24 -26 34 32
34 37 0 56 -4 59 -14z m-5633 -246 c-8 -5 -22 -10 -30 -10 -13 0 -13 1 0 10 8
5 22 10 30 10 13 0 13 -1 0 -10z m470 -32 c0 -4 -4 -8 -9 -8 -6 0 -12 4 -15 8
-3 5 1 9 9 9 8 0 15 -4 15 -9z m-563 -39 c-7 -4 -26 -10 -43 -13 -24 -5 -33
-3 -38 10 -5 14 0 16 34 12 31 -3 40 0 40 12 0 13 1 13 10 0 6 -10 5 -17 -3
-21z m-167 -53 c0 -2 -7 -7 -16 -10 -8 -3 -12 -2 -9 4 6 10 25 14 25 6z m-59
-23 c11 -15 11 -16 -1 -5 -8 6 -26 12 -41 12 -22 0 -26 -4 -22 -19 3 -11 -2
-21 -11 -24 -9 -4 -16 -3 -16 2 0 4 -12 14 -27 22 l-26 14 29 6 c58 13 101 10
115 -8z m7764 8 c3 -5 1 -12 -5 -16 -5 -3 -10 1 -10 9 0 18 6 21 15 7z m-2325
-92 c7 -11 10 -22 8 -24 -2 -1 -23 1 -48 5 l-45 7 38 2 c36 1 50 14 25 24 -10
4 -10 6 -1 6 7 1 17 -8 23 -20z m37 -64 c-4 -8 -2 -17 3 -20 16 -10 12 -38 -4
-32 -24 9 -98 -14 -92 -29 3 -9 -2 -14 -14 -14 -15 0 -20 7 -20 29 0 24 6 31
33 42 17 7 46 18 62 24 17 7 32 13 34 14 2 0 1 -6 -2 -14z m1870 -31 c-3 -3
-12 -4 -19 -1 -8 3 -5 6 6 6 11 1 17 -2 13 -5z m-2154 -18 c10 -5 40 -6 67 -2
29 4 50 3 50 -3 0 -5 -9 -7 -20 -4 -14 4 -20 0 -20 -10 0 -12 -14 -16 -62 -17
-35 -1 -76 -3 -93 -4 -52 -5 -68 9 -41 36 15 15 89 17 119 4z m1437 -26 c0 -5
-17 -9 -37 -9 l-38 2 35 7 c19 4 36 8 38 9 1 0 2 -3 2 -9z m-400 -116 c0 -22
-2 -25 -15 -14 -8 7 -15 19 -15 26 0 8 7 14 15 14 10 0 15 -10 15 -26z m1633
9 c-7 -2 -19 -2 -25 0 -7 3 -2 5 12 5 14 0 19 -2 13 -5z m-578 -61 c-3 -3 -11
0 -18 7 -9 10 -8 11 6 5 10 -3 15 -9 12 -12z m-145 -6 c0 -2 -7 -9 -15 -16
-12 -10 -15 -10 -15 4 0 9 7 16 15 16 8 0 15 -2 15 -4z m650 -6 c0 -5 -4 -10
-10 -10 -5 0 -10 5 -10 10 0 6 5 10 10 10 6 0 10 -4 10 -10z m-3080 -215 c0
-8 -7 -15 -16 -15 -14 0 -14 3 -4 15 7 8 14 15 16 15 2 0 4 -7 4 -15z"/>
<path d="M5900 1560 c-29 -9 -28 -10 25 -14 21 -2 41 -8 43 -15 2 -6 8 -11 13
-11 6 0 7 5 4 10 -4 6 -2 16 4 23 8 10 1 13 -27 14 -20 0 -48 -3 -62 -7z"/>
<path d="M6023 1553 c9 -2 23 -2 30 0 6 3 -1 5 -18 5 -16 0 -22 -2 -12 -5z"/>
<path d="M6080 1550 c0 -5 5 -10 11 -10 5 0 7 5 4 10 -3 6 -8 10 -11 10 -2 0
-4 -4 -4 -10z"/>
<path d="M6120 1535 c0 -8 7 -15 15 -15 9 0 12 6 9 15 -4 8 -10 15 -15 15 -5
0 -9 -7 -9 -15z"/>
<path d="M10200 1525 c-7 -8 -16 -13 -20 -10 -5 3 -21 0 -36 -5 -20 -8 -24
-14 -16 -22 9 -9 18 -8 37 2 21 11 27 11 43 -3 23 -21 32 -21 32 -2 0 8 -9 15
-20 15 -22 0 -27 16 -7 23 6 2 9 7 6 11 -3 4 -12 0 -19 -9z"/>
<path d="M5315 1520 l-40 -7 43 -2 c23 0 42 4 42 9 0 6 -1 9 -2 9 -2 -1 -21
-5 -43 -9z"/>
<path d="M5068 1513 c6 -2 18 -2 25 0 6 3 1 5 -13 5 -14 0 -19 -2 -12 -5z"/>
<path d="M5180 1516 c0 -2 7 -6 15 -10 8 -3 15 -1 15 4 0 6 -7 10 -15 10 -8 0
-15 -2 -15 -4z"/>
<path d="M6480 1513 c-45 -4 -82 -23 -44 -23 10 0 31 -6 46 -14 15 -8 37 -12
50 -9 33 9 69 34 62 44 -5 9 -26 9 -114 2z m95 -13 c-3 -5 -15 -10 -26 -10
-10 0 -19 5 -19 10 0 6 12 10 26 10 14 0 23 -4 19 -10z"/>
<path d="M4344 1501 c3 -5 15 -7 26 -4 28 7 25 13 -6 13 -14 0 -23 -4 -20 -9z"/>
<path d="M4745 1499 c-22 -4 -57 -8 -77 -8 -21 -1 -38 -5 -38 -9 0 -5 24 -7
53 -5 89 6 137 14 137 24 0 10 -19 10 -75 -2z"/>
<path d="M2428 1493 c7 -3 16 -2 19 1 4 3 -2 6 -13 5 -11 0 -14 -3 -6 -6z"/>
<path d="M3968 1493 c7 -3 16 -2 19 1 4 3 -2 6 -13 5 -11 0 -14 -3 -6 -6z"/>
<path d="M3885 1480 c-4 -6 3 -10 14 -10 25 0 27 6 6 13 -8 4 -17 2 -20 -3z"/>
<path d="M7628 1483 c6 -2 18 -2 25 0 6 3 1 5 -13 5 -14 0 -19 -2 -12 -5z"/>
<path d="M10000 1479 c0 -5 5 -7 10 -4 6 3 10 8 10 11 0 2 -4 4 -10 4 -5 0
-10 -5 -10 -11z"/>
<path d="M4598 1473 c7 -3 16 -2 19 1 4 3 -2 6 -13 5 -11 0 -14 -3 -6 -6z"/>
<path d="M6357 1473 c-3 -5 1 -13 8 -20 10 -9 14 -8 18 8 5 18 -16 28 -26 12z"/>
<path d="M4455 1460 c-3 -5 -1 -10 4 -10 6 0 11 5 11 10 0 6 -2 10 -4 10 -3 0
-8 -4 -11 -10z"/>
<path d="M6713 1453 c-7 -2 -13 -8 -13 -12 0 -12 40 -8 41 4 1 11 -11 15 -28
8z"/>
<path d="M9848 1433 c7 -3 16 -2 19 1 4 3 -2 6 -13 5 -11 0 -14 -3 -6 -6z"/>
<path d="M2745 1400 c-4 -6 7 -10 25 -10 18 0 29 4 25 10 -3 6 -15 10 -25 10
-10 0 -22 -4 -25 -10z"/>
<path d="M9645 1400 c-4 -6 7 -10 24 -10 17 0 31 5 31 10 0 6 -11 10 -24 10
-14 0 -28 -4 -31 -10z"/>
<path d="M1793 1393 c9 -2 25 -2 35 0 9 3 1 5 -18 5 -19 0 -27 -2 -17 -5z"/>
<path d="M2975 1384 c9 -10 40 -18 78 -21 75 -7 68 7 -11 24 -80 17 -87 16
-67 -3z"/>
<path d="M3385 1390 c-4 -6 7 -10 24 -10 17 0 31 5 31 10 0 6 -11 10 -24 10
-14 0 -28 -4 -31 -10z"/>
<path d="M3468 1393 c6 -2 18 -2 25 0 6 3 1 5 -13 5 -14 0 -19 -2 -12 -5z"/>
<path d="M3868 1393 c7 -3 16 -2 19 1 4 3 -2 6 -13 5 -11 0 -14 -3 -6 -6z"/>
<path d="M6180 1385 c0 -8 2 -15 4 -15 2 0 6 7 10 15 3 8 1 15 -4 15 -6 0 -10
-7 -10 -15z"/>
<path d="M7578 1383 c-63 -32 -16 -43 157 -35 180 8 237 6 249 -9 6 -8 17 -14
24 -14 21 0 16 -19 -9 -32 -13 -7 -33 -10 -44 -7 -16 5 -17 4 -8 -6 12 -13
127 -17 156 -5 10 4 31 5 48 1 21 -4 31 -1 36 10 4 11 15 13 47 9 35 -6 45 -3
69 19 16 14 38 26 51 26 28 0 54 25 33 33 -7 2 -62 2 -122 0 -146 -7 -238 -6
-305 1 -30 3 -77 8 -105 10 -27 3 -76 8 -108 11 -47 5 -58 3 -64 -10 -3 -9 -9
-13 -12 -7 -11 16 -65 19 -93 5z m42 -7 c0 -2 -7 -7 -16 -10 -8 -3 -12 -2 -9
4 6 10 25 14 25 6z m447 -92 c-3 -3 -12 -4 -19 -1 -8 3 -5 6 6 6 11 1 17 -2
13 -5z"/>
<path d="M9550 1390 c0 -5 4 -10 9 -10 6 0 13 5 16 10 3 6 -1 10 -9 10 -9 0
-16 -4 -16 -10z"/>
<path d="M3820 1386 c0 -2 7 -7 16 -10 8 -3 12 -2 9 4 -6 10 -25 14 -25 6z"/>
<path d="M15 1370 c3 -5 21 -10 40 -10 19 0 37 5 40 10 4 6 -12 10 -40 10 -28
0 -44 -4 -40 -10z"/>
<path d="M1808 1373 c6 -2 18 -2 25 0 6 3 1 5 -13 5 -14 0 -19 -2 -12 -5z"/>
<path d="M6226 1372 c-7 -12 40 -29 51 -18 4 3 -3 6 -14 6 -12 0 -23 5 -25 12
-3 9 -6 9 -12 0z"/>
<path d="M2528 1363 c7 -3 16 -2 19 1 4 3 -2 6 -13 5 -11 0 -14 -3 -6 -6z"/>
<path d="M2598 1363 c12 -2 30 -2 40 0 9 3 -1 5 -23 4 -22 0 -30 -2 -17 -4z"/>
<path d="M2725 1360 l-20 -9 20 0 c11 0 27 4 35 9 13 9 13 10 0 9 -8 0 -24 -4
-35 -9z"/>
<path d="M2830 1360 c19 -13 30 -13 30 0 0 6 -10 10 -22 10 -19 0 -20 -2 -8
-10z"/>
<path d="M3128 1363 c7 -3 16 -2 19 1 4 3 -2 6 -13 5 -11 0 -14 -3 -6 -6z"/>
<path d="M3208 1363 c-16 -2 -28 -8 -28 -14 0 -12 80 -6 81 6 0 12 -15 14 -53
8z"/>
<path d="M3320 1361 l-45 -7 47 -4 c33 -4 49 -1 53 7 2 7 1 12 -3 11 -4 0 -27
-4 -52 -7z"/>
<path d="M3406 1356 c4 -12 18 -14 57 -9 78 8 81 23 4 23 -54 0 -65 -3 -61
-14z"/>
<path d="M1145 1350 c3 -5 8 -10 11 -10 2 0 4 5 4 10 0 6 -5 10 -11 10 -5 0
-7 -4 -4 -10z"/>
<path d="M2880 1350 c0 -6 17 -10 37 -10 43 0 41 5 -4 13 -19 4 -33 2 -33 -3z"/>
<path d="M1323 1343 c9 -2 23 -2 30 0 6 3 -1 5 -18 5 -16 0 -22 -2 -12 -5z"/>
<path d="M8506 1331 c-4 -5 -2 -12 3 -15 5 -4 12 -2 15 3 4 5 2 12 -3 15 -5 4
-12 2 -15 -3z"/>
<path d="M8570 1330 c-13 -8 -13 -10 2 -10 9 0 20 5 23 10 8 13 -5 13 -25 0z"/>
<path d="M9633 1329 c-40 -15 -25 -20 50 -18 39 1 80 -2 91 -6 16 -7 35 7 36
26 0 9 -153 8 -177 -2z"/>
<path d="M7020 1287 c0 -14 49 -36 68 -29 23 7 13 29 -12 25 -13 -3 -27 0 -30
6 -10 15 -26 14 -26 -2z"/>
<path d="M7830 1240 c-8 -5 -25 -10 -38 -10 -13 0 -31 -7 -40 -16 -15 -15 -14
-16 8 -8 14 5 44 9 68 9 23 0 46 5 50 11 4 7 16 14 27 17 11 2 2 5 -20 6 -22
0 -47 -4 -55 -9z"/>
<path d="M2500 1230 c0 -5 9 -10 21 -10 11 0 17 5 14 10 -3 6 -13 10 -21 10
-8 0 -14 -4 -14 -10z"/>
<path d="M6245 1230 c3 -5 15 -10 26 -10 11 0 17 5 14 10 -3 6 -15 10 -26 10
-11 0 -17 -4 -14 -10z"/>
<path d="M7500 1213 c0 -12 49 -32 55 -24 2 5 -7 13 -21 20 -29 13 -34 14 -34
4z"/>
<path d="M7300 1165 c0 -8 6 -15 14 -15 22 0 28 17 10 24 -22 9 -24 8 -24 -9z"/>
<path d="M8755 1169 c-9 -14 -2 -20 14 -10 8 6 9 11 3 15 -6 3 -14 1 -17 -5z"/>
<path d="M6870 1165 c0 -2 9 -9 20 -15 16 -9 20 -8 20 5 0 8 -9 15 -20 15 -11
0 -20 -2 -20 -5z"/>
<path d="M2507 1154 c-11 -11 3 -24 24 -24 12 0 19 5 17 13 -5 14 -31 21 -41
11z"/>
<path d="M1926 1125 c4 -8 12 -15 20 -15 19 0 18 16 -2 24 -22 9 -24 8 -18 -9z"/>
<path d="M2600 1120 c0 -5 9 -10 20 -10 11 0 20 5 20 10 0 6 -9 10 -20 10 -11
0 -20 -4 -20 -10z"/>
<path d="M2805 1120 c11 -5 27 -9 35 -9 9 0 8 4 -5 9 -11 5 -27 9 -35 9 -9 0
-8 -4 5 -9z"/>
<path d="M3105 1120 c3 -5 18 -10 32 -10 32 0 28 5 -10 14 -19 4 -26 3 -22 -4z"/>
<path d="M1710 1098 l25 -21 -27 7 c-22 5 -28 3 -28 -9 0 -12 6 -15 20 -10 10
3 28 2 38 -4 12 -6 23 -6 33 0 11 8 11 12 2 16 -18 7 -16 23 1 23 8 0 17 4 20
9 3 5 -20 9 -52 9 l-57 1 25 -21z"/>
<path d="M3395 1097 c-69 -16 -87 -29 -55 -38 37 -10 111 -10 148 0 25 8 32 7
32 -5 0 -8 5 -14 10 -14 6 0 10 6 10 14 0 8 9 18 20 21 27 9 15 25 -18 25 -15
0 -43 2 -62 4 -19 2 -57 -1 -85 -7z"/>
<path d="M1625 1080 c-3 -5 -1 -10 4 -10 6 0 11 5 11 10 0 6 -2 10 -4 10 -3 0
-8 -4 -11 -10z"/>
<path d="M2920 1058 c0 -6 -7 -7 -16 -4 -8 3 -12 2 -9 -4 9 -14 97 -12 116 3
14 11 8 13 -37 13 -30 1 -54 -3 -54 -8z"/>
<path d="M2825 1050 c-18 -8 -17 -9 8 -9 16 -1 26 3 22 9 -3 6 -7 10 -8 9 -1
0 -11 -4 -22 -9z"/>
<path d="M2780 1040 c0 -5 5 -10 10 -10 6 0 10 5 10 10 0 6 -4 10 -10 10 -5 0
-10 -4 -10 -10z"/>
<path d="M7986 1022 c-9 -15 9 -24 49 -25 34 -1 54 8 42 19 -11 11 -84 16 -91
6z"/>
<path d="M2410 990 c0 -5 12 -10 26 -10 14 0 23 4 19 10 -3 6 -15 10 -26 10
-10 0 -19 -4 -19 -10z"/>
<path d="M2260 945 c0 -19 9 -19 51 0 l34 14 -42 1 c-32 0 -43 -4 -43 -15z"/>
<path d="M8400 890 c0 -5 5 -10 11 -10 5 0 7 5 4 10 -3 6 -8 10 -11 10 -2 0
-4 -4 -4 -10z"/>
<path d="M6650 810 c-12 -8 -9 -10 13 -10 15 0 27 5 27 10 0 13 -20 13 -40 0z"/>
<path d="M6560 735 l-25 -14 37 -1 c29 0 36 3 32 15 -7 18 -12 18 -44 0z"/>
<path d="M25 710 c3 -5 8 -10 11 -10 2 0 4 5 4 10 0 6 -5 10 -11 10 -5 0 -7
-4 -4 -10z"/>
<path d="M880 710 c0 -5 9 -10 19 -10 11 0 23 5 26 10 4 6 -5 10 -19 10 -14 0
-26 -4 -26 -10z"/>
<path d="M131 682 c-16 -22 -18 -22 -59 -8 -69 25 -72 20 -72 -115 0 -132 3
-136 64 -104 35 19 131 41 213 51 35 3 68 13 74 20 6 8 24 14 39 14 41 0 60
10 60 31 0 11 7 19 17 19 9 0 14 2 12 5 -10 9 -79 -8 -79 -20 0 -8 -18 -12
-55 -11 -30 0 -55 4 -55 8 0 4 7 8 15 8 10 0 13 8 9 28 -6 35 9 60 28 45 12
-10 47 -17 76 -14 23 2 13 31 -11 31 -13 0 -29 6 -35 13 -8 7 -54 14 -118 17
-102 5 -107 4 -123 -18z m144 -32 c3 -5 0 -10 -9 -10 -8 0 -22 -3 -32 -7 -16
-6 -17 -5 -4 10 17 19 36 22 45 7z m-118 -6 c-3 -3 -12 -4 -19 -1 -8 3 -5 6 6
6 11 1 17 -2 13 -5z m83 -93 c0 -24 -4 -28 -19 -24 -22 6 -35 40 -17 47 26 11
36 5 36 -23z m-160 -17 c0 -22 -2 -25 -15 -14 -8 7 -15 19 -15 26 0 8 7 14 15
14 10 0 15 -10 15 -26z"/>
<path d="M6725 698 c-36 -20 -49 -58 -20 -58 8 0 15 3 15 8 0 4 10 12 23 17
22 10 30 36 12 41 -5 2 -19 -2 -30 -8z"/>
<path d="M805 680 c4 -6 11 -8 16 -5 14 9 11 15 -7 15 -8 0 -12 -5 -9 -10z"/>
<path d="M720 670 c0 -5 5 -10 10 -10 6 0 10 5 10 10 0 6 -4 10 -10 10 -5 0
-10 -4 -10 -10z"/>
<path d="M9340 640 c0 -5 5 -10 10 -10 6 0 10 5 10 10 0 6 -4 10 -10 10 -5 0
-10 -4 -10 -10z"/>
<path d="M8597 576 c-6 -15 19 -56 34 -56 5 0 9 9 9 20 0 14 7 20 23 20 20 0
20 1 -7 15 -35 19 -52 19 -59 1z"/>
<path d="M9542 294 c-28 -19 -30 -60 -2 -60 10 0 17 2 15 5 -3 2 11 15 30 28
19 13 35 27 35 31 0 15 -56 12 -78 -4z m23 -16 c-11 -6 -23 -16 -27 -22 -5 -8
-8 -7 -8 1 0 12 28 32 45 32 6 0 1 -5 -10 -11z"/>
<path d="M9773 282 c-12 -8 -11 -41 2 -62 8 -13 32 -13 40 0 3 5 0 7 -8 4 -9
-3 -16 3 -20 15 -4 18 0 21 26 21 29 0 30 1 11 15 -22 16 -34 18 -51 7z"/>
<path d="M9622 253 c0 -10 -3 -27 -6 -38 -8 -20 -7 -20 8 -1 18 22 21 42 7 51
-6 3 -9 -3 -9 -12z"/>
<path d="M6546 251 c-6 -9 1 -71 9 -79 3 -3 5 11 5 31 0 41 4 44 26 23 16 -17
19 -30 4 -21 -15 9 -12 -1 5 -15 13 -11 15 -8 15 18 0 24 -6 32 -30 40 -16 6
-32 7 -34 3z"/>
<path d="M9890 239 c0 -11 5 -19 12 -17 17 6 19 38 2 38 -8 0 -14 -9 -14 -21z"/>
<path d="M9953 245 c-7 -20 2 -29 21 -22 9 4 13 13 10 22 -8 19 -23 19 -31 0z"/>
<path d="M6856 240 c-15 -5 -16 -9 -7 -14 7 -5 18 -3 24 3 14 14 6 20 -17 11z"/>
<path d="M6965 240 c4 -6 -1 -7 -11 -3 -14 5 -16 3 -11 -11 4 -10 7 -30 7 -44
0 -19 3 -23 9 -13 5 7 13 11 19 7 5 -3 24 0 42 8 l32 13 -22 21 c-12 11 -28
18 -36 15 -8 -3 -14 0 -14 6 0 6 -5 11 -11 11 -5 0 -7 -4 -4 -10z"/>
<path d="M8320 235 c0 -8 6 -15 14 -15 22 0 28 17 10 24 -22 9 -24 8 -24 -9z"/>
<path d="M9587 230 c-13 -16 -14 -20 -3 -20 8 0 17 7 20 16 9 25 2 26 -17 4z"/>
<path d="M6904 219 c0 -10 4 -19 8 -19 4 0 8 6 8 14 0 8 -4 17 -8 20 -4 2 -8
-4 -8 -15z"/>
<path d="M9848 215 c-3 -14 -1 -25 3 -25 5 0 9 11 9 25 0 14 -2 25 -4 25 -2 0
-6 -11 -8 -25z"/>
<path d="M10011 204 c0 -11 3 -14 6 -6 3 7 2 16 -1 19 -3 4 -6 -2 -5 -13z"/>
<path d="M10051 204 c0 -11 3 -14 6 -6 3 7 2 16 -1 19 -3 4 -6 -2 -5 -13z"/>
<path d="M9702 185 c6 -14 15 -25 20 -25 5 0 1 11 -8 25 -9 14 -18 25 -20 25
-2 0 2 -11 8 -25z"/>
<path d="M9900 200 c0 -5 5 -10 10 -10 6 0 10 5 10 10 0 6 -4 10 -10 10 -5 0
-10 -4 -10 -10z"/>
<path d="M8560 169 c0 -5 9 -9 20 -9 11 0 20 2 20 4 0 2 -9 6 -20 9 -11 3 -20
1 -20 -4z"/>
<path d="M9778 173 c6 -2 18 -2 25 0 6 3 1 5 -13 5 -14 0 -19 -2 -12 -5z"/>
<path d="M9978 173 c7 -3 16 -2 19 1 4 3 -2 6 -13 5 -11 0 -14 -3 -6 -6z"/>
<path d="M9200 66 c0 -7 7 -19 15 -26 8 -7 15 -19 15 -26 0 -8 8 -14 18 -14
14 0 15 2 2 10 -9 6 -10 10 -3 10 8 0 7 9 -3 30 -16 31 -44 41 -44 16z"/>
<path d="M9023 39 c-6 -6 -30 -11 -53 -12 -24 -1 -45 -8 -48 -15 -3 -9 22 -12
97 -12 l101 0 -2 25 c-3 27 -18 31 -50 14 -15 -8 -22 -8 -27 0 -5 8 -10 8 -18
0z"/>
<path d="M9526 33 c-4 -5 -15 -8 -24 -9 -10 -1 -27 -2 -40 -3 -13 0 -20 -6
-17 -11 3 -6 38 -10 77 -10 70 0 71 0 53 20 -19 21 -36 25 -49 13z"/>
<path d="M9160 15 c0 -8 9 -15 20 -15 11 0 20 7 20 15 0 8 -9 15 -20 15 -11 0
-20 -7 -20 -15z"/>
<path d="M9277 9 c7 -7 15 -10 18 -7 3 3 -2 9 -12 12 -14 6 -15 5 -6 -5z"/>
</g>
</svg>
